solid OpenSCAD_Model
  facet normal 0 1 -0
    outer loop
      vertex 28.9 36.98 -0.0999985
      vertex -28.9 36.98 2
      vertex 28.9 36.98 2
    endloop
  endfacet
  facet normal 0 1 0
    outer loop
      vertex -28.9 36.98 2
      vertex 28.9 36.98 -0.0999985
      vertex -28.9 36.98 -0.0999994
    endloop
  endfacet
  facet normal 1.56018e-08 0 -1
    outer loop
      vertex 26.2651 -1.23015 -0.0999986
      vertex -26.2651 -1.23015 -0.0999994
      vertex 26.2651 31.7102 -0.0999986
    endloop
  endfacet
  facet normal 1.56499e-08 -2.47864e-09 -1
    outer loop
      vertex 26.2651 31.7102 -0.0999986
      vertex -26.0308 32.1701 -0.0999994
      vertex -25.95 32.68 -0.0999994
    endloop
  endfacet
  facet normal 1.56018e-08 0 -1
    outer loop
      vertex -26.2651 31.7102 -0.0999994
      vertex 26.2651 31.7102 -0.0999986
      vertex -26.2651 -1.23015 -0.0999994
    endloop
  endfacet
  facet normal 1.56018e-08 -7.94952e-09 -1
    outer loop
      vertex 26.2651 31.7102 -0.0999986
      vertex -26.2651 31.7102 -0.0999994
      vertex -26.0308 32.1701 -0.0999994
    endloop
  endfacet
  facet normal 2.04107e-08 0 -1
    outer loop
      vertex -26.6302 -0.865122 -0.0999994
      vertex -26.2651 31.7102 -0.0999994
      vertex -26.2651 -1.23015 -0.0999994
    endloop
  endfacet
  facet normal 2.04107e-08 0 -1
    outer loop
      vertex -26.6302 -0.865122 -0.0999994
      vertex -26.6302 31.3451 -0.0999994
      vertex -26.2651 31.7102 -0.0999994
    endloop
  endfacet
  facet normal 1.6198e-08 0 -1
    outer loop
      vertex -27.0901 -0.630756 -0.0999994
      vertex -26.6302 31.3451 -0.0999994
      vertex -26.6302 -0.865122 -0.0999994
    endloop
  endfacet
  facet normal 1.6198e-08 0 -1
    outer loop
      vertex -27.0901 -0.630756 -0.0999994
      vertex -27.0901 31.1108 -0.0999994
      vertex -26.6302 31.3451 -0.0999994
    endloop
  endfacet
  facet normal 1.46125e-08 0 -1
    outer loop
      vertex -27.6 -0.549999 -0.0999994
      vertex -27.0901 31.1108 -0.0999994
      vertex -27.0901 -0.630756 -0.0999994
    endloop
  endfacet
  facet normal 1.46125e-08 0 -1
    outer loop
      vertex -27.6 -0.549999 -0.0999994
      vertex -27.6 31.03 -0.0999994
      vertex -27.0901 31.1108 -0.0999994
    endloop
  endfacet
  facet normal 1.46124e-08 0 -1
    outer loop
      vertex -28.1099 -0.630756 -0.0999994
      vertex -27.6 31.03 -0.0999994
      vertex -27.6 -0.549999 -0.0999994
    endloop
  endfacet
  facet normal 1.46124e-08 0 -1
    outer loop
      vertex -28.1099 -0.630756 -0.0999994
      vertex -28.1099 31.1108 -0.0999994
      vertex -27.6 31.03 -0.0999994
    endloop
  endfacet
  facet normal 1.61981e-08 0 -1
    outer loop
      vertex -28.5698 -0.865122 -0.0999994
      vertex -28.1099 31.1108 -0.0999994
      vertex -28.1099 -0.630756 -0.0999994
    endloop
  endfacet
  facet normal 1.61981e-08 0 -1
    outer loop
      vertex -28.5698 -0.865122 -0.0999994
      vertex -28.5698 31.3451 -0.0999994
      vertex -28.1099 31.1108 -0.0999994
    endloop
  endfacet
  facet normal 2.2567e-08 0 -1
    outer loop
      vertex -28.9 -1.19528 -0.0999994
      vertex -28.5698 31.3451 -0.0999994
      vertex -28.5698 -0.865122 -0.0999994
    endloop
  endfacet
  facet normal 2.2567e-08 0 -1
    outer loop
      vertex -28.5698 31.3451 -0.0999994
      vertex -28.9 -1.19528 -0.0999994
      vertex -28.9 31.6753 -0.0999994
    endloop
  endfacet
  facet normal 1.58459e-08 8.0739e-09 -1
    outer loop
      vertex 26.2651 31.7102 -0.0999986
      vertex -25.95 32.68 -0.0999994
      vertex 26.0308 32.1701 -0.0999986
    endloop
  endfacet
  facet normal 1.56477e-08 -1.21342e-08 -1
    outer loop
      vertex 26.0308 -2.70988 -0.0999986
      vertex -25.95 -2.2 -0.0999994
      vertex 25.95 -2.2 -0.0999986
    endloop
  endfacet
  facet normal 1.57422e-08 8.02107e-09 -1
    outer loop
      vertex -26.0308 -2.70988 -0.0999994
      vertex 26.0308 -2.70988 -0.0999986
      vertex 26.2651 -3.16985 -0.0999986
    endloop
  endfacet
  facet normal 1.5937e-08 -4.47376e-09 -1
    outer loop
      vertex -28.9 -6.5 -0.0999994
      vertex 26.2651 -3.16985 -0.0999986
      vertex 26.6302 -3.53488 -0.0999986
    endloop
  endfacet
  facet normal 1.59633e-08 -4.96693e-09 -1
    outer loop
      vertex -28.9 -6.5 -0.0999994
      vertex 26.6302 -3.53488 -0.0999986
      vertex 27.033 -3.74015 -0.0999985
    endloop
  endfacet
  facet normal 1.57422e-08 -2.49328e-09 -1
    outer loop
      vertex 26.0308 -2.70988 -0.0999986
      vertex -26.0308 -2.70988 -0.0999994
      vertex -25.95 -2.2 -0.0999994
    endloop
  endfacet
  facet normal 1.56018e-08 -7.9495e-09 -1
    outer loop
      vertex 26.2651 -3.16985 -0.0999986
      vertex -26.2651 -3.16985 -0.0999994
      vertex -26.0308 -2.70988 -0.0999994
    endloop
  endfacet
  facet normal 1.56018e-08 1.07946e-09 -1
    outer loop
      vertex 26.2651 -3.16985 -0.0999986
      vertex -28.9 -6.5 -0.0999994
      vertex -26.2651 -3.16985 -0.0999994
    endloop
  endfacet
  facet normal 3.34651e-08 -1.30543e-08 -1
    outer loop
      vertex -26.2651 -3.16985 -0.0999994
      vertex -28.9 -6.5 -0.0999994
      vertex -26.6302 -3.53488 -0.0999994
    endloop
  endfacet
  facet normal 1.60611e-08 2.68658e-10 -1
    outer loop
      vertex -26.6302 -3.53488 -0.0999994
      vertex -28.9 -6.5 -0.0999994
      vertex -27.0901 -3.76924 -0.0999994
    endloop
  endfacet
  facet normal 1.43951e-08 1.37287e-09 -1
    outer loop
      vertex -27.0901 -3.76924 -0.0999994
      vertex -28.9 -6.5 -0.0999994
      vertex -27.6 -3.85 -0.0999994
    endloop
  endfacet
  facet normal 1.47985e-08 1.17497e-09 -1
    outer loop
      vertex -28.9 -6.5 -0.0999994
      vertex -28.1099 -3.76924 -0.0999994
      vertex -27.6 -3.85 -0.0999994
    endloop
  endfacet
  facet normal 1.654e-08 6.71075e-10 -1
    outer loop
      vertex -28.9 -6.5 -0.0999994
      vertex -28.5698 -3.53488 -0.0999994
      vertex -28.1099 -3.76924 -0.0999994
    endloop
  endfacet
  facet normal 2.2567e-08 0 -1
    outer loop
      vertex -28.5698 -3.53488 -0.0999994
      vertex -28.9 -6.5 -0.0999994
      vertex -28.9 -3.20472 -0.0999994
    endloop
  endfacet
  facet normal -2.33832e-09 -2.27491e-08 -1
    outer loop
      vertex 28.5698 -0.865122 -0.0999985
      vertex 31.9 -3.5 -0.0999985
      vertex 28.9349 -1.23015 -0.0999985
    endloop
  endfacet
  facet normal 1.82904e-08 -2.89691e-09 -1
    outer loop
      vertex 31.9 33.98 -0.0999985
      vertex 29.1692 32.1701 -0.0999985
      vertex 29.25 32.68 -0.0999985
    endloop
  endfacet
  facet normal 1.56612e-08 0 -1
    outer loop
      vertex 31.9 -3.5 -0.0999985
      vertex 28.5698 -0.865122 -0.0999985
      vertex 31.9 33.98 -0.0999985
    endloop
  endfacet
  facet normal 2.47176e-08 -1.25943e-08 -1
    outer loop
      vertex 31.9 33.98 -0.0999985
      vertex 28.9349 31.7102 -0.0999985
      vertex 29.1692 32.1701 -0.0999985
    endloop
  endfacet
  facet normal 1.56612e-08 0 -1
    outer loop
      vertex 28.5698 31.3451 -0.0999985
      vertex 31.9 33.98 -0.0999985
      vertex 28.5698 -0.865122 -0.0999985
    endloop
  endfacet
  facet normal -2.33832e-09 2.27491e-08 -1
    outer loop
      vertex 31.9 33.98 -0.0999985
      vertex 28.5698 31.3451 -0.0999985
      vertex 28.9349 31.7102 -0.0999985
    endloop
  endfacet
  facet normal 1.61981e-08 0 -1
    outer loop
      vertex 28.1099 -0.630756 -0.0999985
      vertex 28.5698 31.3451 -0.0999985
      vertex 28.5698 -0.865122 -0.0999985
    endloop
  endfacet
  facet normal 1.61981e-08 0 -1
    outer loop
      vertex 28.1099 -0.630756 -0.0999985
      vertex 28.1099 31.1108 -0.0999985
      vertex 28.5698 31.3451 -0.0999985
    endloop
  endfacet
  facet normal 1.46124e-08 0 -1
    outer loop
      vertex 27.6 -0.549999 -0.0999985
      vertex 28.1099 31.1108 -0.0999985
      vertex 28.1099 -0.630756 -0.0999985
    endloop
  endfacet
  facet normal 1.46124e-08 0 -1
    outer loop
      vertex 27.6 -0.549999 -0.0999985
      vertex 27.6 31.03 -0.0999985
      vertex 28.1099 31.1108 -0.0999985
    endloop
  endfacet
  facet normal 1.46125e-08 0 -1
    outer loop
      vertex 27.0901 -0.630756 -0.0999985
      vertex 27.6 31.03 -0.0999985
      vertex 27.6 -0.549999 -0.0999985
    endloop
  endfacet
  facet normal 1.46125e-08 0 -1
    outer loop
      vertex 27.0901 -0.630756 -0.0999985
      vertex 27.0901 31.1108 -0.0999985
      vertex 27.6 31.03 -0.0999985
    endloop
  endfacet
  facet normal 1.6198e-08 0 -1
    outer loop
      vertex 26.6302 -0.865122 -0.0999986
      vertex 27.0901 31.1108 -0.0999985
      vertex 27.0901 -0.630756 -0.0999985
    endloop
  endfacet
  facet normal 1.6198e-08 0 -1
    outer loop
      vertex 26.6302 -0.865122 -0.0999986
      vertex 26.6302 31.3451 -0.0999986
      vertex 27.0901 31.1108 -0.0999985
    endloop
  endfacet
  facet normal 2.04107e-08 0 -1
    outer loop
      vertex 26.2651 -1.23015 -0.0999986
      vertex 26.6302 31.3451 -0.0999986
      vertex 26.6302 -0.865122 -0.0999986
    endloop
  endfacet
  facet normal 2.04107e-08 0 -1
    outer loop
      vertex 26.2651 -1.23015 -0.0999986
      vertex 26.2651 31.7102 -0.0999986
      vertex 26.6302 31.3451 -0.0999986
    endloop
  endfacet
  facet normal 1.57422e-08 2.49328e-09 -1
    outer loop
      vertex -26.0308 -1.69012 -0.0999994
      vertex 26.0308 -1.69012 -0.0999986
      vertex -25.95 -2.2 -0.0999994
    endloop
  endfacet
  facet normal 1.57422e-08 -8.02107e-09 -1
    outer loop
      vertex 26.0308 -1.69012 -0.0999986
      vertex -26.0308 -1.69012 -0.0999994
      vertex 26.2651 -1.23015 -0.0999986
    endloop
  endfacet
  facet normal 1.56477e-08 1.21342e-08 -1
    outer loop
      vertex -25.95 -2.2 -0.0999994
      vertex 26.0308 -1.69012 -0.0999986
      vertex 25.95 -2.2 -0.0999986
    endloop
  endfacet
  facet normal 1.56018e-08 7.9495e-09 -1
    outer loop
      vertex -26.2651 -1.23015 -0.0999994
      vertex 26.2651 -1.23015 -0.0999986
      vertex -26.0308 -1.69012 -0.0999994
    endloop
  endfacet
  facet normal 1.82904e-08 2.89693e-09 -1
    outer loop
      vertex 29.1692 -1.69012 -0.0999985
      vertex 31.9 -3.5 -0.0999985
      vertex 29.25 -2.2 -0.0999985
    endloop
  endfacet
  facet normal 1.5653e-08 -2.47921e-09 -1
    outer loop
      vertex 31.9 -3.5 -0.0999985
      vertex 29.1692 -2.70988 -0.0999985
      vertex 29.25 -2.2 -0.0999985
    endloop
  endfacet
  facet normal 1.4267e-08 -7.26942e-09 -1
    outer loop
      vertex 31.9 -3.5 -0.0999985
      vertex 28.9349 -3.16985 -0.0999985
      vertex 29.1692 -2.70988 -0.0999985
    endloop
  endfacet
  facet normal 1.56109e-08 4.79986e-09 -1
    outer loop
      vertex 31.9 -3.5 -0.0999985
      vertex 28.5698 -3.53488 -0.0999985
      vertex 28.9349 -3.16985 -0.0999985
    endloop
  endfacet
  facet normal 1.54339e-08 2.16957e-08 -1
    outer loop
      vertex 28.5698 -3.53488 -0.0999985
      vertex 31.9 -3.5 -0.0999985
      vertex 28.2886 -3.6782 -0.0999985
    endloop
  endfacet
  facet normal 2.47175e-08 1.25942e-08 -1
    outer loop
      vertex 28.9349 -1.23015 -0.0999985
      vertex 31.9 -3.5 -0.0999985
      vertex 29.1692 -1.69012 -0.0999985
    endloop
  endfacet
  facet normal 1.5653e-08 2.47922e-09 -1
    outer loop
      vertex 29.1692 33.1899 -0.0999985
      vertex 31.9 33.98 -0.0999985
      vertex 29.25 32.68 -0.0999985
    endloop
  endfacet
  facet normal 1.4267e-08 7.26941e-09 -1
    outer loop
      vertex 28.9349 33.6498 -0.0999985
      vertex 31.9 33.98 -0.0999985
      vertex 29.1692 33.1899 -0.0999985
    endloop
  endfacet
  facet normal 1.56109e-08 -4.79986e-09 -1
    outer loop
      vertex 28.5698 34.0149 -0.0999985
      vertex 31.9 33.98 -0.0999985
      vertex 28.9349 33.6498 -0.0999985
    endloop
  endfacet
  facet normal 1.54339e-08 -2.16958e-08 -1
    outer loop
      vertex 31.9 33.98 -0.0999985
      vertex 28.5698 34.0149 -0.0999985
      vertex 28.2886 34.1582 -0.0999985
    endloop
  endfacet
  facet normal 1.56477e-08 -1.21341e-08 -1
    outer loop
      vertex 26.0308 32.1701 -0.0999986
      vertex -25.95 32.68 -0.0999994
      vertex 25.95 32.68 -0.0999986
    endloop
  endfacet
  facet normal 1.56477e-08 1.21342e-08 -1
    outer loop
      vertex 25.95 32.68 -0.0999986
      vertex -25.95 32.68 -0.0999994
      vertex 26.0308 33.1899 -0.0999986
    endloop
  endfacet
  facet normal 1.57422e-08 2.49328e-09 -1
    outer loop
      vertex -26.0308 33.1899 -0.0999994
      vertex 26.0308 33.1899 -0.0999986
      vertex -25.95 32.68 -0.0999994
    endloop
  endfacet
  facet normal 1.57422e-08 -8.02105e-09 -1
    outer loop
      vertex 26.0308 33.1899 -0.0999986
      vertex -26.0308 33.1899 -0.0999994
      vertex 26.2651 33.6498 -0.0999986
    endloop
  endfacet
  facet normal 1.56018e-08 7.94948e-09 -1
    outer loop
      vertex -26.2651 33.6498 -0.0999994
      vertex 26.2651 33.6498 -0.0999986
      vertex -26.0308 33.1899 -0.0999994
    endloop
  endfacet
  facet normal 1.56018e-08 -1.07946e-09 -1
    outer loop
      vertex -28.9 36.98 -0.0999994
      vertex 26.2651 33.6498 -0.0999986
      vertex -26.2651 33.6498 -0.0999994
    endloop
  endfacet
  facet normal 1.5937e-08 4.47376e-09 -1
    outer loop
      vertex 26.2651 33.6498 -0.0999986
      vertex -28.9 36.98 -0.0999994
      vertex 26.6302 34.0149 -0.0999986
    endloop
  endfacet
  facet normal 3.34651e-08 1.30543e-08 -1
    outer loop
      vertex -28.9 36.98 -0.0999994
      vertex -26.2651 33.6498 -0.0999994
      vertex -26.6302 34.0149 -0.0999994
    endloop
  endfacet
  facet normal 1.60611e-08 -2.6866e-10 -1
    outer loop
      vertex -28.9 36.98 -0.0999994
      vertex -26.6302 34.0149 -0.0999994
      vertex -27.0901 34.2492 -0.0999994
    endloop
  endfacet
  facet normal 1.43951e-08 -1.37288e-09 -1
    outer loop
      vertex -28.9 36.98 -0.0999994
      vertex -27.0901 34.2492 -0.0999994
      vertex -27.6 34.33 -0.0999994
    endloop
  endfacet
  facet normal 1.59633e-08 4.96694e-09 -1
    outer loop
      vertex 26.6302 34.0149 -0.0999986
      vertex -28.9 36.98 -0.0999994
      vertex 27.033 34.2201 -0.0999985
    endloop
  endfacet
  facet normal 1.47985e-08 -1.17497e-09 -1
    outer loop
      vertex -28.1099 34.2492 -0.0999994
      vertex -28.9 36.98 -0.0999994
      vertex -27.6 34.33 -0.0999994
    endloop
  endfacet
  facet normal 1.654e-08 -6.71075e-10 -1
    outer loop
      vertex -28.5698 34.0149 -0.0999994
      vertex -28.9 36.98 -0.0999994
      vertex -28.1099 34.2492 -0.0999994
    endloop
  endfacet
  facet normal 2.2567e-08 0 -1
    outer loop
      vertex -28.9 36.98 -0.0999994
      vertex -28.5698 34.0149 -0.0999994
      vertex -28.9 33.6847 -0.0999994
    endloop
  endfacet
  facet normal 1.64996e-08 1.04173e-07 -1
    outer loop
      vertex 29.827 36.8332 -0.0999985
      vertex -28.9 36.98 -0.0999994
      vertex 28.9 36.98 -0.0999985
    endloop
  endfacet
  facet normal -1 0 0
    outer loop
      vertex -31.9 -3.5 -0.0999994
      vertex -31.9 33.98 2
      vertex -31.9 33.98 -0.0999994
    endloop
  endfacet
  facet normal -1 -0 0
    outer loop
      vertex -31.9 33.98 2
      vertex -31.9 -3.5 -0.0999994
      vertex -31.9 -3.5 2
    endloop
  endfacet
  facet normal 1.63192e-08 -3.20281e-08 -1
    outer loop
      vertex 29.827 -6.35317 -0.0999985
      vertex -28.9 -6.5 -0.0999994
      vertex 30.6634 -5.92705 -0.0999985
    endloop
  endfacet
  facet normal 0.707106 -0.707107 0
    outer loop
      vertex 30.6634 -5.92705 -0.0999985
      vertex 31.327 -5.26336 2
      vertex 30.6634 -5.92705 2
    endloop
  endfacet
  facet normal 0.707106 -0.707107 0
    outer loop
      vertex 31.327 -5.26336 2
      vertex 30.6634 -5.92705 -0.0999985
      vertex 31.327 -5.26336 -0.0999985
    endloop
  endfacet
  facet normal 0 0 -1
    outer loop
      vertex -29.827 -6.35317 -0.0999994
      vertex -28.9 -3.20472 -0.0999994
      vertex -28.9 -6.5 -0.0999994
    endloop
  endfacet
  facet normal 0 0 -1
    outer loop
      vertex -30.6634 -5.92705 -0.0999994
      vertex -28.9 -3.20472 -0.0999994
      vertex -29.827 -6.35317 -0.0999994
    endloop
  endfacet
  facet normal 0 0 -1
    outer loop
      vertex -31.327 -5.26336 -0.0999994
      vertex -28.9 -3.20472 -0.0999994
      vertex -30.6634 -5.92705 -0.0999994
    endloop
  endfacet
  facet normal 0 0 -1
    outer loop
      vertex -31.7532 -4.42705 -0.0999994
      vertex -28.9349 -3.16985 -0.0999994
      vertex -31.327 -5.26336 -0.0999994
    endloop
  endfacet
  facet normal -0 0 -1
    outer loop
      vertex -28.9 -3.20472 -0.0999994
      vertex -31.327 -5.26336 -0.0999994
      vertex -28.9349 -3.16985 -0.0999994
    endloop
  endfacet
  facet normal 0 0 -1
    outer loop
      vertex -28.9349 -1.23015 -0.0999994
      vertex -28.9 31.6753 -0.0999994
      vertex -28.9 -1.19528 -0.0999994
    endloop
  endfacet
  facet normal 0 0 -1
    outer loop
      vertex -28.9349 -1.23015 -0.0999994
      vertex -28.9349 31.7102 -0.0999994
      vertex -28.9 31.6753 -0.0999994
    endloop
  endfacet
  facet normal 0 0 -1
    outer loop
      vertex -29.1692 -1.69012 -0.0999994
      vertex -28.9349 31.7102 -0.0999994
      vertex -28.9349 -1.23015 -0.0999994
    endloop
  endfacet
  facet normal 0 0 -1
    outer loop
      vertex -29.1692 -1.69012 -0.0999994
      vertex -29.1692 32.1701 -0.0999994
      vertex -28.9349 31.7102 -0.0999994
    endloop
  endfacet
  facet normal 0 0 -1
    outer loop
      vertex -29.25 -2.2 -0.0999994
      vertex -29.1692 32.1701 -0.0999994
      vertex -29.1692 -1.69012 -0.0999994
    endloop
  endfacet
  facet normal -0 0 -1
    outer loop
      vertex -29.1692 32.1701 -0.0999994
      vertex -29.25 -2.2 -0.0999994
      vertex -29.25 32.68 -0.0999994
    endloop
  endfacet
  facet normal 0 0 -1
    outer loop
      vertex -31.327 35.7434 -0.0999994
      vertex -28.9 33.6847 -0.0999994
      vertex -28.9349 33.6498 -0.0999994
    endloop
  endfacet
  facet normal 0 0 -1
    outer loop
      vertex -31.9 33.98 -0.0999994
      vertex -28.9349 33.6498 -0.0999994
      vertex -29.1692 33.1899 -0.0999994
    endloop
  endfacet
  facet normal 0 0 -1
    outer loop
      vertex -31.9 33.98 -0.0999994
      vertex -29.1692 33.1899 -0.0999994
      vertex -29.25 32.68 -0.0999994
    endloop
  endfacet
  facet normal 0 0 -1
    outer loop
      vertex -28.9 33.6847 -0.0999994
      vertex -29.827 36.8332 -0.0999994
      vertex -28.9 36.98 -0.0999994
    endloop
  endfacet
  facet normal -0 0 -1
    outer loop
      vertex -29.25 -2.2 -0.0999994
      vertex -31.9 -3.5 -0.0999994
      vertex -29.25 32.68 -0.0999994
    endloop
  endfacet
  facet normal 0 0 -1
    outer loop
      vertex -31.9 -3.5 -0.0999994
      vertex -28.9349 -3.16985 -0.0999994
      vertex -31.7532 -4.42705 -0.0999994
    endloop
  endfacet
  facet normal 0 0 -1
    outer loop
      vertex -31.9 33.98 -0.0999994
      vertex -29.25 32.68 -0.0999994
      vertex -31.9 -3.5 -0.0999994
    endloop
  endfacet
  facet normal -0 0 -1
    outer loop
      vertex -28.9349 -3.16985 -0.0999994
      vertex -31.9 -3.5 -0.0999994
      vertex -29.1692 -2.70988 -0.0999994
    endloop
  endfacet
  facet normal 0 0 -1
    outer loop
      vertex -28.9349 33.6498 -0.0999994
      vertex -31.9 33.98 -0.0999994
      vertex -31.7532 34.9071 -0.0999994
    endloop
  endfacet
  facet normal -0 0 -1
    outer loop
      vertex -29.1692 -2.70988 -0.0999994
      vertex -31.9 -3.5 -0.0999994
      vertex -29.25 -2.2 -0.0999994
    endloop
  endfacet
  facet normal 0 0 -1
    outer loop
      vertex -28.9 33.6847 -0.0999994
      vertex -30.6634 36.4071 -0.0999994
      vertex -29.827 36.8332 -0.0999994
    endloop
  endfacet
  facet normal 0 0 -1
    outer loop
      vertex -28.9 33.6847 -0.0999994
      vertex -31.327 35.7434 -0.0999994
      vertex -30.6634 36.4071 -0.0999994
    endloop
  endfacet
  facet normal 0 0 -1
    outer loop
      vertex -28.9349 33.6498 -0.0999994
      vertex -31.7532 34.9071 -0.0999994
      vertex -31.327 35.7434 -0.0999994
    endloop
  endfacet
  facet normal -0.987688 0.156433 0
    outer loop
      vertex -31.9 33.98 -0.0999994
      vertex -31.7532 34.9071 2
      vertex -31.7532 34.9071 -0.0999994
    endloop
  endfacet
  facet normal -0.987688 0.156433 0
    outer loop
      vertex -31.7532 34.9071 2
      vertex -31.9 33.98 -0.0999994
      vertex -31.9 33.98 2
    endloop
  endfacet
  facet normal 0 -1 0
    outer loop
      vertex -28.9 -6.5 2
      vertex 28.9 -6.5 -0.0999985
      vertex 28.9 -6.5 2
    endloop
  endfacet
  facet normal -0 -1 0
    outer loop
      vertex 28.9 -6.5 -0.0999985
      vertex -28.9 -6.5 2
      vertex -28.9 -6.5 -0.0999994
    endloop
  endfacet
  facet normal -0.45399 -0.891007 0
    outer loop
      vertex -30.6634 -5.92705 -0.0999994
      vertex -29.827 -6.35317 2
      vertex -30.6634 -5.92705 2
    endloop
  endfacet
  facet normal -0.45399 -0.891007 -0
    outer loop
      vertex -29.827 -6.35317 2
      vertex -30.6634 -5.92705 -0.0999994
      vertex -29.827 -6.35317 -0.0999994
    endloop
  endfacet
  facet normal -1.11902e-06 -1.77235e-07 1
    outer loop
      vertex -30.6634 -5.92705 2
      vertex -31.9 -3.5 2
      vertex -31.7532 -4.42705 2
    endloop
  endfacet
  facet normal -0.987688 -0.156434 0
    outer loop
      vertex -31.7532 -4.42705 -0.0999994
      vertex -31.9 -3.5 2
      vertex -31.9 -3.5 -0.0999994
    endloop
  endfacet
  facet normal -0.987688 -0.156434 0
    outer loop
      vertex -31.9 -3.5 2
      vertex -31.7532 -4.42705 -0.0999994
      vertex -31.7532 -4.42705 2
    endloop
  endfacet
  facet normal -7.71179e-07 0 1
    outer loop
      vertex -31.9 33.98 2
      vertex -30.6634 -5.92705 2
      vertex -30.6634 36.4071 2
    endloop
  endfacet
  facet normal -7.71179e-07 0 1
    outer loop
      vertex -30.6634 -5.92705 2
      vertex -31.9 33.98 2
      vertex -31.9 -3.5 2
    endloop
  endfacet
  facet normal -0.891005 0.453993 0
    outer loop
      vertex -31.7532 34.9071 -0.0999994
      vertex -31.327 35.7434 2
      vertex -31.327 35.7434 -0.0999994
    endloop
  endfacet
  facet normal -0.891005 0.453993 0
    outer loop
      vertex -31.327 35.7434 2
      vertex -31.7532 34.9071 -0.0999994
      vertex -31.7532 34.9071 2
    endloop
  endfacet
  facet normal -0.156436 0.987688 0
    outer loop
      vertex -28.9 36.98 -0.0999994
      vertex -29.827 36.8332 2
      vertex -28.9 36.98 2
    endloop
  endfacet
  facet normal -0.156436 0.987688 0
    outer loop
      vertex -29.827 36.8332 2
      vertex -28.9 36.98 -0.0999994
      vertex -29.827 36.8332 -0.0999994
    endloop
  endfacet
  facet normal 1.61666e-08 1.61666e-08 -1
    outer loop
      vertex 31.327 35.7434 -0.0999985
      vertex -28.9 36.98 -0.0999994
      vertex 30.6634 36.4071 -0.0999985
    endloop
  endfacet
  facet normal 0.707107 0.707107 0
    outer loop
      vertex 31.327 35.7434 2
      vertex 30.6634 36.4071 -0.0999985
      vertex 30.6634 36.4071 2
    endloop
  endfacet
  facet normal 0.707107 0.707107 0
    outer loop
      vertex 30.6634 36.4071 -0.0999985
      vertex 31.327 35.7434 2
      vertex 31.327 35.7434 -0.0999985
    endloop
  endfacet
  facet normal 1.64996e-08 -1.04174e-07 -1
    outer loop
      vertex 28.9 -6.5 -0.0999985
      vertex -28.9 -6.5 -0.0999994
      vertex 29.827 -6.35317 -0.0999985
    endloop
  endfacet
  facet normal 0.156434 -0.987688 0
    outer loop
      vertex 28.9 -6.5 -0.0999985
      vertex 29.827 -6.35317 2
      vertex 28.9 -6.5 2
    endloop
  endfacet
  facet normal 0.156434 -0.987688 0
    outer loop
      vertex 29.827 -6.35317 2
      vertex 28.9 -6.5 -0.0999985
      vertex 29.827 -6.35317 -0.0999985
    endloop
  endfacet
  facet normal 0.156435 0.987688 -0
    outer loop
      vertex 29.827 36.8332 -0.0999985
      vertex 28.9 36.98 2
      vertex 29.827 36.8332 2
    endloop
  endfacet
  facet normal 0.156435 0.987688 0
    outer loop
      vertex 28.9 36.98 2
      vertex 29.827 36.8332 -0.0999985
      vertex 28.9 36.98 -0.0999985
    endloop
  endfacet
  facet normal -0.156435 -0.987688 0
    outer loop
      vertex -29.827 -6.35317 -0.0999994
      vertex -28.9 -6.5 2
      vertex -29.827 -6.35317 2
    endloop
  endfacet
  facet normal -0.156435 -0.987688 -0
    outer loop
      vertex -28.9 -6.5 2
      vertex -29.827 -6.35317 -0.0999994
      vertex -28.9 -6.5 -0.0999994
    endloop
  endfacet
  facet normal -0.707107 -0.707106 0
    outer loop
      vertex -30.6634 -5.92705 -0.0999994
      vertex -31.327 -5.26336 2
      vertex -31.327 -5.26336 -0.0999994
    endloop
  endfacet
  facet normal -0.707107 -0.707106 0
    outer loop
      vertex -31.327 -5.26336 2
      vertex -30.6634 -5.92705 -0.0999994
      vertex -30.6634 -5.92705 2
    endloop
  endfacet
  facet normal -0.891006 -0.453992 0
    outer loop
      vertex -31.327 -5.26336 -0.0999994
      vertex -31.7532 -4.42705 2
      vertex -31.7532 -4.42705 -0.0999994
    endloop
  endfacet
  facet normal -0.891006 -0.453992 0
    outer loop
      vertex -31.7532 -4.42705 2
      vertex -31.327 -5.26336 -0.0999994
      vertex -31.327 -5.26336 2
    endloop
  endfacet
  facet normal -2.92967e-06 -1.49275e-06 1
    outer loop
      vertex -30.6634 -5.92705 2
      vertex -31.7532 -4.42705 2
      vertex -31.327 -5.26336 2
    endloop
  endfacet
  facet normal 0 0 1
    outer loop
      vertex 26.2651 31.7102 2
      vertex -26.2651 31.7102 2
      vertex 26.2651 -1.23015 2
    endloop
  endfacet
  facet normal 0 0 1
    outer loop
      vertex 26.2651 -1.23015 2
      vertex -26.0308 -1.69012 2
      vertex -25.95 -2.2 2
    endloop
  endfacet
  facet normal 0 0 1
    outer loop
      vertex -26.2651 -1.23015 2
      vertex 26.2651 -1.23015 2
      vertex -26.2651 31.7102 2
    endloop
  endfacet
  facet normal 0 0 1
    outer loop
      vertex 26.2651 -1.23015 2
      vertex -26.2651 -1.23015 2
      vertex -26.0308 -1.69012 2
    endloop
  endfacet
  facet normal -0 0 1
    outer loop
      vertex -26.6302 31.3451 2
      vertex -26.2651 -1.23015 2
      vertex -26.2651 31.7102 2
    endloop
  endfacet
  facet normal 0 0 1
    outer loop
      vertex -26.6302 31.3451 2
      vertex -26.6302 -0.865122 2
      vertex -26.2651 -1.23015 2
    endloop
  endfacet
  facet normal -0 0 1
    outer loop
      vertex -27.0901 31.1108 2
      vertex -26.6302 -0.865122 2
      vertex -26.6302 31.3451 2
    endloop
  endfacet
  facet normal 0 0 1
    outer loop
      vertex -27.0901 31.1108 2
      vertex -27.0901 -0.630756 2
      vertex -26.6302 -0.865122 2
    endloop
  endfacet
  facet normal -0 0 1
    outer loop
      vertex -27.6 31.03 2
      vertex -27.0901 -0.630756 2
      vertex -27.0901 31.1108 2
    endloop
  endfacet
  facet normal 0 0 1
    outer loop
      vertex -27.6 31.03 2
      vertex -27.6 -0.549999 2
      vertex -27.0901 -0.630756 2
    endloop
  endfacet
  facet normal 0 0 1
    outer loop
      vertex -28.1099 31.1108 2
      vertex -27.6 -0.549999 2
      vertex -27.6 31.03 2
    endloop
  endfacet
  facet normal 0 0 1
    outer loop
      vertex -28.1099 31.1108 2
      vertex -28.1099 -0.630756 2
      vertex -27.6 -0.549999 2
    endloop
  endfacet
  facet normal 0 0 1
    outer loop
      vertex -28.5698 31.3451 2
      vertex -28.1099 -0.630756 2
      vertex -28.1099 31.1108 2
    endloop
  endfacet
  facet normal 0 0 1
    outer loop
      vertex -28.5698 31.3451 2
      vertex -28.5698 -0.865122 2
      vertex -28.1099 -0.630756 2
    endloop
  endfacet
  facet normal 0 0 1
    outer loop
      vertex -28.9349 31.7102 2
      vertex -28.5698 -0.865122 2
      vertex -28.5698 31.3451 2
    endloop
  endfacet
  facet normal 0 0 1
    outer loop
      vertex -28.9349 31.7102 2
      vertex -28.9349 -1.23015 2
      vertex -28.5698 -0.865122 2
    endloop
  endfacet
  facet normal 0 0 1
    outer loop
      vertex -29.1692 32.1701 2
      vertex -28.9349 -1.23015 2
      vertex -28.9349 31.7102 2
    endloop
  endfacet
  facet normal 0 0 1
    outer loop
      vertex -29.1692 32.1701 2
      vertex -29.1692 -1.69012 2
      vertex -28.9349 -1.23015 2
    endloop
  endfacet
  facet normal 0 0 1
    outer loop
      vertex -30.6634 36.4071 2
      vertex -29.1692 32.1701 2
      vertex -29.25 32.68 2
    endloop
  endfacet
  facet normal 0 0 1
    outer loop
      vertex -29.1692 32.1701 2
      vertex -30.6634 36.4071 2
      vertex -29.1692 -1.69012 2
    endloop
  endfacet
  facet normal 0 0 1
    outer loop
      vertex 28.5698 31.3451 2
      vertex 31.9 33.98 2
      vertex 28.9349 31.7102 2
    endloop
  endfacet
  facet normal 0 0 1
    outer loop
      vertex 31.9 -3.5 2
      vertex 29.1692 -1.69012 2
      vertex 29.25 -2.2 2
    endloop
  endfacet
  facet normal 0 0 1
    outer loop
      vertex 31.9 33.98 2
      vertex 28.5698 31.3451 2
      vertex 31.9 -3.5 2
    endloop
  endfacet
  facet normal 0 0 1
    outer loop
      vertex 31.9 -3.5 2
      vertex 28.9349 -1.23015 2
      vertex 29.1692 -1.69012 2
    endloop
  endfacet
  facet normal -0 0 1
    outer loop
      vertex 28.5698 -0.865122 2
      vertex 31.9 -3.5 2
      vertex 28.5698 31.3451 2
    endloop
  endfacet
  facet normal 0 0 1
    outer loop
      vertex 31.9 -3.5 2
      vertex 28.5698 -0.865122 2
      vertex 28.9349 -1.23015 2
    endloop
  endfacet
  facet normal -0 0 1
    outer loop
      vertex 28.1099 31.1108 2
      vertex 28.5698 -0.865122 2
      vertex 28.5698 31.3451 2
    endloop
  endfacet
  facet normal 0 0 1
    outer loop
      vertex 28.1099 31.1108 2
      vertex 28.1099 -0.630756 2
      vertex 28.5698 -0.865122 2
    endloop
  endfacet
  facet normal -0 0 1
    outer loop
      vertex 27.6 31.03 2
      vertex 28.1099 -0.630756 2
      vertex 28.1099 31.1108 2
    endloop
  endfacet
  facet normal 0 0 1
    outer loop
      vertex 27.6 31.03 2
      vertex 27.6 -0.549999 2
      vertex 28.1099 -0.630756 2
    endloop
  endfacet
  facet normal 0 0 1
    outer loop
      vertex 27.0901 31.1108 2
      vertex 27.6 -0.549999 2
      vertex 27.6 31.03 2
    endloop
  endfacet
  facet normal 0 0 1
    outer loop
      vertex 27.0901 31.1108 2
      vertex 27.0901 -0.630756 2
      vertex 27.6 -0.549999 2
    endloop
  endfacet
  facet normal 0 0 1
    outer loop
      vertex 26.6302 31.3451 2
      vertex 27.0901 -0.630756 2
      vertex 27.0901 31.1108 2
    endloop
  endfacet
  facet normal 0 0 1
    outer loop
      vertex 26.6302 31.3451 2
      vertex 26.6302 -0.865122 2
      vertex 27.0901 -0.630756 2
    endloop
  endfacet
  facet normal 0 0 1
    outer loop
      vertex 26.2651 31.7102 2
      vertex 26.6302 -0.865122 2
      vertex 26.6302 31.3451 2
    endloop
  endfacet
  facet normal 0 0 1
    outer loop
      vertex 26.2651 31.7102 2
      vertex 26.2651 -1.23015 2
      vertex 26.6302 -0.865122 2
    endloop
  endfacet
  facet normal 0 0 1
    outer loop
      vertex -26.0308 32.1701 2
      vertex 26.0308 32.1701 2
      vertex -25.95 32.68 2
    endloop
  endfacet
  facet normal 0 0 1
    outer loop
      vertex 26.0308 32.1701 2
      vertex -26.0308 32.1701 2
      vertex 26.2651 31.7102 2
    endloop
  endfacet
  facet normal -0 0 1
    outer loop
      vertex -25.95 32.68 2
      vertex 26.0308 32.1701 2
      vertex 25.95 32.68 2
    endloop
  endfacet
  facet normal 0 0 1
    outer loop
      vertex -26.2651 31.7102 2
      vertex 26.2651 31.7102 2
      vertex -26.0308 32.1701 2
    endloop
  endfacet
  facet normal 0 0 1
    outer loop
      vertex 28.9349 33.6498 2
      vertex 31.9 33.98 2
      vertex 31.7532 34.9071 2
    endloop
  endfacet
  facet normal 0 0 1
    outer loop
      vertex 29.1692 32.1701 2
      vertex 31.9 33.98 2
      vertex 29.25 32.68 2
    endloop
  endfacet
  facet normal 0 0 1
    outer loop
      vertex 28.9349 33.6498 2
      vertex 31.7532 34.9071 2
      vertex 31.327 35.7434 2
    endloop
  endfacet
  facet normal 0 0 1
    outer loop
      vertex 28.9349 31.7102 2
      vertex 31.9 33.98 2
      vertex 29.1692 32.1701 2
    endloop
  endfacet
  facet normal 0 0 1
    outer loop
      vertex 28.9349 33.6498 2
      vertex 31.327 35.7434 2
      vertex 30.6634 36.4071 2
    endloop
  endfacet
  facet normal -0 0 1
    outer loop
      vertex 29.1692 -2.70988 2
      vertex 31.9 -3.5 2
      vertex 29.25 -2.2 2
    endloop
  endfacet
  facet normal 0 0 1
    outer loop
      vertex 28.5698 34.0149 2
      vertex 30.6634 36.4071 2
      vertex 29.827 36.8332 2
    endloop
  endfacet
  facet normal -0 0 1
    outer loop
      vertex 28.9349 -3.16985 2
      vertex 31.9 -3.5 2
      vertex 29.1692 -2.70988 2
    endloop
  endfacet
  facet normal 0 0 1
    outer loop
      vertex 31.9 -3.5 2
      vertex 28.9349 -3.16985 2
      vertex 31.7532 -4.42705 2
    endloop
  endfacet
  facet normal 0 0 1
    outer loop
      vertex 31.9 33.98 2
      vertex 29.1692 33.1899 2
      vertex 29.25 32.68 2
    endloop
  endfacet
  facet normal 0 0 1
    outer loop
      vertex 31.9 33.98 2
      vertex 28.9349 33.6498 2
      vertex 29.1692 33.1899 2
    endloop
  endfacet
  facet normal 0 0 1
    outer loop
      vertex 28.5698 34.0149 2
      vertex 29.827 36.8332 2
      vertex 28.9 36.98 2
    endloop
  endfacet
  facet normal 0 0 1
    outer loop
      vertex 30.6634 36.4071 2
      vertex 28.5698 34.0149 2
      vertex 28.9349 33.6498 2
    endloop
  endfacet
  facet normal 0 0 1
    outer loop
      vertex 28.9 36.98 2
      vertex 28.1099 34.2492 2
      vertex 28.5698 34.0149 2
    endloop
  endfacet
  facet normal 0 0 1
    outer loop
      vertex 28.9 36.98 2
      vertex 27.6 34.33 2
      vertex 28.1099 34.2492 2
    endloop
  endfacet
  facet normal 0 0 1
    outer loop
      vertex 28.9 36.98 2
      vertex 27.0901 34.2492 2
      vertex 27.6 34.33 2
    endloop
  endfacet
  facet normal 0 0 1
    outer loop
      vertex 28.9 36.98 2
      vertex 26.6302 34.0149 2
      vertex 27.0901 34.2492 2
    endloop
  endfacet
  facet normal 0 0 1
    outer loop
      vertex 28.9 36.98 2
      vertex 26.2651 33.6498 2
      vertex 26.6302 34.0149 2
    endloop
  endfacet
  facet normal 0 0 1
    outer loop
      vertex 26.2651 -1.23015 2
      vertex -25.95 -2.2 2
      vertex 26.0308 -1.69012 2
    endloop
  endfacet
  facet normal 0 0 1
    outer loop
      vertex 26.0308 33.1899 2
      vertex -25.95 32.68 2
      vertex 25.95 32.68 2
    endloop
  endfacet
  facet normal 0 0 1
    outer loop
      vertex -26.0308 33.1899 2
      vertex 26.0308 33.1899 2
      vertex 26.2651 33.6498 2
    endloop
  endfacet
  facet normal 0 0 1
    outer loop
      vertex -26.2651 33.6498 2
      vertex 26.2651 33.6498 2
      vertex 28.9 36.98 2
    endloop
  endfacet
  facet normal 0 0 1
    outer loop
      vertex 26.0308 33.1899 2
      vertex -26.0308 33.1899 2
      vertex -25.95 32.68 2
    endloop
  endfacet
  facet normal 0 0 1
    outer loop
      vertex 26.2651 33.6498 2
      vertex -26.2651 33.6498 2
      vertex -26.0308 33.1899 2
    endloop
  endfacet
  facet normal -0 0 1
    outer loop
      vertex -28.9 36.98 2
      vertex -26.2651 33.6498 2
      vertex 28.9 36.98 2
    endloop
  endfacet
  facet normal 0 0 1
    outer loop
      vertex -26.2651 33.6498 2
      vertex -28.9 36.98 2
      vertex -26.6302 34.0149 2
    endloop
  endfacet
  facet normal 0 0 1
    outer loop
      vertex -26.6302 34.0149 2
      vertex -28.9 36.98 2
      vertex -27.0901 34.2492 2
    endloop
  endfacet
  facet normal 0 0 1
    outer loop
      vertex -27.0901 34.2492 2
      vertex -28.9 36.98 2
      vertex -27.6 34.33 2
    endloop
  endfacet
  facet normal 0 0 1
    outer loop
      vertex -28.9 36.98 2
      vertex -28.1099 34.2492 2
      vertex -27.6 34.33 2
    endloop
  endfacet
  facet normal 0 0 1
    outer loop
      vertex -28.9 36.98 2
      vertex -28.5698 34.0149 2
      vertex -28.1099 34.2492 2
    endloop
  endfacet
  facet normal -0 0 1
    outer loop
      vertex -29.827 36.8332 2
      vertex -28.5698 34.0149 2
      vertex -28.9 36.98 2
    endloop
  endfacet
  facet normal -0 0 1
    outer loop
      vertex -30.6634 36.4071 2
      vertex -28.5698 34.0149 2
      vertex -29.827 36.8332 2
    endloop
  endfacet
  facet normal 0 0 1
    outer loop
      vertex -28.5698 34.0149 2
      vertex -30.6634 36.4071 2
      vertex -28.9349 33.6498 2
    endloop
  endfacet
  facet normal 0 0 1
    outer loop
      vertex -29.1692 33.1899 2
      vertex -30.6634 36.4071 2
      vertex -29.25 32.68 2
    endloop
  endfacet
  facet normal 0 0 1
    outer loop
      vertex -28.9349 33.6498 2
      vertex -30.6634 36.4071 2
      vertex -29.1692 33.1899 2
    endloop
  endfacet
  facet normal 0 0 1
    outer loop
      vertex 31.7532 -4.42705 2
      vertex 28.9349 -3.16985 2
      vertex 31.327 -5.26336 2
    endloop
  endfacet
  facet normal 0 0 1
    outer loop
      vertex 31.327 -5.26336 2
      vertex 28.9349 -3.16985 2
      vertex 30.6634 -5.92705 2
    endloop
  endfacet
  facet normal -0 0 1
    outer loop
      vertex 28.5698 -3.53488 2
      vertex 30.6634 -5.92705 2
      vertex 28.9349 -3.16985 2
    endloop
  endfacet
  facet normal 0 0 1
    outer loop
      vertex 30.6634 -5.92705 2
      vertex 28.5698 -3.53488 2
      vertex 29.827 -6.35317 2
    endloop
  endfacet
  facet normal 0 0 1
    outer loop
      vertex 29.827 -6.35317 2
      vertex 28.5698 -3.53488 2
      vertex 28.9 -6.5 2
    endloop
  endfacet
  facet normal -0 0 1
    outer loop
      vertex 28.1099 -3.76924 2
      vertex 28.9 -6.5 2
      vertex 28.5698 -3.53488 2
    endloop
  endfacet
  facet normal -0 0 1
    outer loop
      vertex 27.6 -3.85 2
      vertex 28.9 -6.5 2
      vertex 28.1099 -3.76924 2
    endloop
  endfacet
  facet normal 0 0 1
    outer loop
      vertex 27.0901 -3.76924 2
      vertex 28.9 -6.5 2
      vertex 27.6 -3.85 2
    endloop
  endfacet
  facet normal 0 0 1
    outer loop
      vertex 26.6302 -3.53488 2
      vertex 28.9 -6.5 2
      vertex 27.0901 -3.76924 2
    endloop
  endfacet
  facet normal 0 0 1
    outer loop
      vertex 26.2651 -3.16985 2
      vertex 28.9 -6.5 2
      vertex 26.6302 -3.53488 2
    endloop
  endfacet
  facet normal 0 0 1
    outer loop
      vertex 26.0308 -1.69012 2
      vertex -25.95 -2.2 2
      vertex 25.95 -2.2 2
    endloop
  endfacet
  facet normal 0 0 1
    outer loop
      vertex 25.95 -2.2 2
      vertex -25.95 -2.2 2
      vertex 26.0308 -2.70988 2
    endloop
  endfacet
  facet normal 0 0 1
    outer loop
      vertex -26.0308 -2.70988 2
      vertex 26.0308 -2.70988 2
      vertex -25.95 -2.2 2
    endloop
  endfacet
  facet normal 0 0 1
    outer loop
      vertex 26.0308 -2.70988 2
      vertex -26.0308 -2.70988 2
      vertex 26.2651 -3.16985 2
    endloop
  endfacet
  facet normal 0 0 1
    outer loop
      vertex -26.2651 -3.16985 2
      vertex 26.2651 -3.16985 2
      vertex -26.0308 -2.70988 2
    endloop
  endfacet
  facet normal 0 0 1
    outer loop
      vertex 26.2651 -3.16985 2
      vertex -26.2651 -3.16985 2
      vertex 28.9 -6.5 2
    endloop
  endfacet
  facet normal 0 0 1
    outer loop
      vertex -28.9 -6.5 2
      vertex -26.2651 -3.16985 2
      vertex -26.6302 -3.53488 2
    endloop
  endfacet
  facet normal 0 0 1
    outer loop
      vertex -28.9 -6.5 2
      vertex -26.6302 -3.53488 2
      vertex -27.0901 -3.76924 2
    endloop
  endfacet
  facet normal 0 0 1
    outer loop
      vertex -28.9 -6.5 2
      vertex -27.0901 -3.76924 2
      vertex -27.6 -3.85 2
    endloop
  endfacet
  facet normal 0 0 1
    outer loop
      vertex -26.2651 -3.16985 2
      vertex -28.9 -6.5 2
      vertex 28.9 -6.5 2
    endloop
  endfacet
  facet normal 0 0 1
    outer loop
      vertex -28.1099 -3.76924 2
      vertex -28.9 -6.5 2
      vertex -27.6 -3.85 2
    endloop
  endfacet
  facet normal 0 0 1
    outer loop
      vertex -28.5698 -3.53488 2
      vertex -28.9 -6.5 2
      vertex -28.1099 -3.76924 2
    endloop
  endfacet
  facet normal 0 0 1
    outer loop
      vertex -30.6634 -5.92705 2
      vertex -28.5698 -3.53488 2
      vertex -28.9349 -3.16985 2
    endloop
  endfacet
  facet normal 0 0 1
    outer loop
      vertex -30.6634 -5.92705 2
      vertex -28.9349 -3.16985 2
      vertex -29.1692 -2.70988 2
    endloop
  endfacet
  facet normal 0 0 1
    outer loop
      vertex -30.6634 -5.92705 2
      vertex -29.1692 -2.70988 2
      vertex -29.25 -2.2 2
    endloop
  endfacet
  facet normal 0 0 1
    outer loop
      vertex -28.5698 -3.53488 2
      vertex -29.827 -6.35317 2
      vertex -28.9 -6.5 2
    endloop
  endfacet
  facet normal 0 0 1
    outer loop
      vertex -30.6634 -5.92705 2
      vertex -29.1692 -1.69012 2
      vertex -30.6634 36.4071 2
    endloop
  endfacet
  facet normal 0 0 1
    outer loop
      vertex -29.1692 -1.69012 2
      vertex -30.6634 -5.92705 2
      vertex -29.25 -2.2 2
    endloop
  endfacet
  facet normal 0 0 1
    outer loop
      vertex -28.5698 -3.53488 2
      vertex -30.6634 -5.92705 2
      vertex -29.827 -6.35317 2
    endloop
  endfacet
  facet normal 0.45399 0.891007 -0
    outer loop
      vertex 30.6634 36.4071 -0.0999985
      vertex 29.827 36.8332 2
      vertex 30.6634 36.4071 2
    endloop
  endfacet
  facet normal 0.45399 0.891007 0
    outer loop
      vertex 29.827 36.8332 2
      vertex 30.6634 36.4071 -0.0999985
      vertex 29.827 36.8332 -0.0999985
    endloop
  endfacet
  facet normal 1.63192e-08 3.20283e-08 -1
    outer loop
      vertex 30.6634 36.4071 -0.0999985
      vertex -28.9 36.98 -0.0999994
      vertex 29.827 36.8332 -0.0999985
    endloop
  endfacet
  facet normal 1.66345e-08 2.63462e-09 -1
    outer loop
      vertex 28.2886 34.1582 -0.0999985
      vertex 31.7532 34.9071 -0.0999985
      vertex 31.9 33.98 -0.0999985
    endloop
  endfacet
  facet normal 1.20797e-08 2.37074e-08 -1
    outer loop
      vertex 28.1099 34.2492 -0.0999985
      vertex 31.7532 34.9071 -0.0999985
      vertex 28.2886 34.1582 -0.0999985
    endloop
  endfacet
  facet normal 1.54291e-08 5.15641e-09 -1
    outer loop
      vertex 27.6 34.33 -0.0999985
      vertex 31.7532 34.9071 -0.0999985
      vertex 28.1099 34.2492 -0.0999985
    endloop
  endfacet
  facet normal 1.58067e-08 2.43849e-09 -1
    outer loop
      vertex 27.6 34.33 -0.0999985
      vertex -28.9 36.98 -0.0999994
      vertex 31.7532 34.9071 -0.0999985
    endloop
  endfacet
  facet normal 1.54457e-08 -5.26014e-09 -1
    outer loop
      vertex 27.0901 34.2492 -0.0999985
      vertex -28.9 36.98 -0.0999994
      vertex 27.6 34.33 -0.0999985
    endloop
  endfacet
  facet normal 1.43306e-08 -2.81238e-08 -1
    outer loop
      vertex -28.9 36.98 -0.0999994
      vertex 27.0901 34.2492 -0.0999985
      vertex 27.033 34.2201 -0.0999985
    endloop
  endfacet
  facet normal 1 -0 0
    outer loop
      vertex 31.9 -3.5 2
      vertex 31.9 33.98 -0.0999985
      vertex 31.9 33.98 2
    endloop
  endfacet
  facet normal 1 0 0
    outer loop
      vertex 31.9 33.98 -0.0999985
      vertex 31.9 -3.5 2
      vertex 31.9 -3.5 -0.0999985
    endloop
  endfacet
  facet normal 1.66344e-08 -2.63462e-09 -1
    outer loop
      vertex 31.7532 -4.42705 -0.0999985
      vertex 28.2886 -3.6782 -0.0999985
      vertex 31.9 -3.5 -0.0999985
    endloop
  endfacet
  facet normal 1.20797e-08 -2.37075e-08 -1
    outer loop
      vertex 31.7532 -4.42705 -0.0999985
      vertex 28.1099 -3.76924 -0.0999985
      vertex 28.2886 -3.6782 -0.0999985
    endloop
  endfacet
  facet normal 1.54291e-08 -5.15643e-09 -1
    outer loop
      vertex 31.7532 -4.42705 -0.0999985
      vertex 27.6 -3.85 -0.0999985
      vertex 28.1099 -3.76924 -0.0999985
    endloop
  endfacet
  facet normal 1.43304e-08 2.81259e-08 -1
    outer loop
      vertex 27.0901 -3.76924 -0.0999985
      vertex -28.9 -6.5 -0.0999994
      vertex 27.033 -3.74015 -0.0999985
    endloop
  endfacet
  facet normal 1.54457e-08 5.26019e-09 -1
    outer loop
      vertex 27.6 -3.85 -0.0999985
      vertex -28.9 -6.5 -0.0999994
      vertex 27.0901 -3.76924 -0.0999985
    endloop
  endfacet
  facet normal 1.58067e-08 -2.43849e-09 -1
    outer loop
      vertex -28.9 -6.5 -0.0999994
      vertex 27.6 -3.85 -0.0999985
      vertex 31.7532 -4.42705 -0.0999985
    endloop
  endfacet
  facet normal 0.987688 -0.156434 0
    outer loop
      vertex 31.7532 -4.42705 2
      vertex 31.9 -3.5 -0.0999985
      vertex 31.9 -3.5 2
    endloop
  endfacet
  facet normal 0.987688 -0.156434 0
    outer loop
      vertex 31.9 -3.5 -0.0999985
      vertex 31.7532 -4.42705 2
      vertex 31.7532 -4.42705 -0.0999985
    endloop
  endfacet
  facet normal 0.987688 0.156433 0
    outer loop
      vertex 31.9 33.98 2
      vertex 31.7532 34.9071 -0.0999985
      vertex 31.7532 34.9071 2
    endloop
  endfacet
  facet normal 0.987688 0.156433 0
    outer loop
      vertex 31.7532 34.9071 -0.0999985
      vertex 31.9 33.98 2
      vertex 31.9 33.98 -0.0999985
    endloop
  endfacet
  facet normal 0.453991 -0.891006 0
    outer loop
      vertex 29.827 -6.35317 -0.0999985
      vertex 30.6634 -5.92705 2
      vertex 29.827 -6.35317 2
    endloop
  endfacet
  facet normal 0.453991 -0.891006 0
    outer loop
      vertex 30.6634 -5.92705 2
      vertex 29.827 -6.35317 -0.0999985
      vertex 30.6634 -5.92705 -0.0999985
    endloop
  endfacet
  facet normal -0.453989 0.891007 0
    outer loop
      vertex -29.827 36.8332 -0.0999994
      vertex -30.6634 36.4071 2
      vertex -29.827 36.8332 2
    endloop
  endfacet
  facet normal -0.453989 0.891007 0
    outer loop
      vertex -30.6634 36.4071 2
      vertex -29.827 36.8332 -0.0999994
      vertex -30.6634 36.4071 -0.0999994
    endloop
  endfacet
  facet normal -1.11902e-06 1.77234e-07 1
    outer loop
      vertex -31.7532 34.9071 2
      vertex -31.9 33.98 2
      vertex -30.6634 36.4071 2
    endloop
  endfacet
  facet normal 1.60021e-08 8.15348e-09 -1
    outer loop
      vertex 31.7532 34.9071 -0.0999985
      vertex -28.9 36.98 -0.0999994
      vertex 31.327 35.7434 -0.0999985
    endloop
  endfacet
  facet normal 1.60021e-08 -8.15347e-09 -1
    outer loop
      vertex 31.327 -5.26336 -0.0999985
      vertex -28.9 -6.5 -0.0999994
      vertex 31.7532 -4.42705 -0.0999985
    endloop
  endfacet
  facet normal 0.891006 -0.453991 0
    outer loop
      vertex 31.327 -5.26336 2
      vertex 31.7532 -4.42705 -0.0999985
      vertex 31.7532 -4.42705 2
    endloop
  endfacet
  facet normal 0.891006 -0.453991 0
    outer loop
      vertex 31.7532 -4.42705 -0.0999985
      vertex 31.327 -5.26336 2
      vertex 31.327 -5.26336 -0.0999985
    endloop
  endfacet
  facet normal 0.891006 0.453991 0
    outer loop
      vertex 31.7532 34.9071 2
      vertex 31.327 35.7434 -0.0999985
      vertex 31.327 35.7434 2
    endloop
  endfacet
  facet normal 0.891006 0.453991 0
    outer loop
      vertex 31.327 35.7434 -0.0999985
      vertex 31.7532 34.9071 2
      vertex 31.7532 34.9071 -0.0999985
    endloop
  endfacet
  facet normal -2.92968e-06 1.49275e-06 1
    outer loop
      vertex -31.327 35.7434 2
      vertex -31.7532 34.9071 2
      vertex -30.6634 36.4071 2
    endloop
  endfacet
  facet normal -0.707108 0.707106 0
    outer loop
      vertex -31.327 35.7434 -0.0999994
      vertex -30.6634 36.4071 2
      vertex -30.6634 36.4071 -0.0999994
    endloop
  endfacet
  facet normal -0.707108 0.707106 0
    outer loop
      vertex -30.6634 36.4071 2
      vertex -31.327 35.7434 -0.0999994
      vertex -31.327 35.7434 2
    endloop
  endfacet
  facet normal 1.61666e-08 -1.61666e-08 -1
    outer loop
      vertex 30.6634 -5.92705 -0.0999985
      vertex -28.9 -6.5 -0.0999994
      vertex 31.327 -5.26336 -0.0999985
    endloop
  endfacet
  facet normal -0.987689 -0.156432 0
    outer loop
      vertex -25.95 -2.2 -0.0999994
      vertex -26.0308 -1.69012 2
      vertex -26.0308 -1.69012 -0.0999994
    endloop
  endfacet
  facet normal -0.987689 -0.156432 0
    outer loop
      vertex -26.0308 -1.69012 2
      vertex -25.95 -2.2 -0.0999994
      vertex -25.95 -2.2 2
    endloop
  endfacet
  facet normal 0.987688 -0.156435 0
    outer loop
      vertex -29.25 -2.2 2
      vertex -29.1692 -1.69012 -0.0999994
      vertex -29.1692 -1.69012 2
    endloop
  endfacet
  facet normal 0.987688 -0.156435 0
    outer loop
      vertex -29.1692 -1.69012 -0.0999994
      vertex -29.25 -2.2 2
      vertex -29.25 -2.2 -0.0999994
    endloop
  endfacet
  facet normal -0.156436 -0.987688 0
    outer loop
      vertex -27.6 -0.549999 2
      vertex -27.0901 -0.630756 -0.0999994
      vertex -27.0901 -0.630756 2
    endloop
  endfacet
  facet normal -0.156436 -0.987688 0
    outer loop
      vertex -27.0901 -0.630756 -0.0999994
      vertex -27.6 -0.549999 2
      vertex -27.6 -0.549999 -0.0999994
    endloop
  endfacet
  facet normal -0.156434 0.987688 0
    outer loop
      vertex -27.0901 -3.76924 -0.0999994
      vertex -27.6 -3.85 2
      vertex -27.0901 -3.76924 2
    endloop
  endfacet
  facet normal -0.156434 0.987688 0
    outer loop
      vertex -27.6 -3.85 2
      vertex -27.0901 -3.76924 -0.0999994
      vertex -27.6 -3.85 -0.0999994
    endloop
  endfacet
  facet normal -0.45399 0.891007 0
    outer loop
      vertex -26.6302 -3.53488 -0.0999994
      vertex -27.0901 -3.76924 2
      vertex -26.6302 -3.53488 2
    endloop
  endfacet
  facet normal -0.45399 0.891007 0
    outer loop
      vertex -27.0901 -3.76924 2
      vertex -26.6302 -3.53488 -0.0999994
      vertex -27.0901 -3.76924 -0.0999994
    endloop
  endfacet
  facet normal -0.707107 -0.707107 0
    outer loop
      vertex -26.2651 -1.23015 -0.0999994
      vertex -26.6302 -0.865122 2
      vertex -26.6302 -0.865122 -0.0999994
    endloop
  endfacet
  facet normal -0.707107 -0.707107 0
    outer loop
      vertex -26.6302 -0.865122 2
      vertex -26.2651 -1.23015 -0.0999994
      vertex -26.2651 -1.23015 2
    endloop
  endfacet
  facet normal -0.891006 -0.453991 0
    outer loop
      vertex -26.0308 -1.69012 -0.0999994
      vertex -26.2651 -1.23015 2
      vertex -26.2651 -1.23015 -0.0999994
    endloop
  endfacet
  facet normal -0.891006 -0.453991 0
    outer loop
      vertex -26.2651 -1.23015 2
      vertex -26.0308 -1.69012 -0.0999994
      vertex -26.0308 -1.69012 2
    endloop
  endfacet
  facet normal -0.45399 -0.891007 0
    outer loop
      vertex -27.0901 -0.630756 2
      vertex -26.6302 -0.865122 -0.0999994
      vertex -26.6302 -0.865122 2
    endloop
  endfacet
  facet normal -0.45399 -0.891007 0
    outer loop
      vertex -26.6302 -0.865122 -0.0999994
      vertex -27.0901 -0.630756 2
      vertex -27.0901 -0.630756 -0.0999994
    endloop
  endfacet
  facet normal 0.707107 -0.707107 0
    outer loop
      vertex -28.5698 -0.865122 2
      vertex -28.9 -1.19528 -0.0999994
      vertex -28.5698 -0.865122 -0.0999994
    endloop
  endfacet
  facet normal 0.707107 -0.707107 0
    outer loop
      vertex -28.9349 -1.23015 2
      vertex -28.9 -1.19528 -0.0999994
      vertex -28.5698 -0.865122 2
    endloop
  endfacet
  facet normal 0.707107 -0.707107 0
    outer loop
      vertex -28.9 -1.19528 -0.0999994
      vertex -28.9349 -1.23015 2
      vertex -28.9349 -1.23015 -0.0999994
    endloop
  endfacet
  facet normal 0.891006 -0.453991 0
    outer loop
      vertex -29.1692 -1.69012 2
      vertex -28.9349 -1.23015 -0.0999994
      vertex -28.9349 -1.23015 2
    endloop
  endfacet
  facet normal 0.891006 -0.453991 0
    outer loop
      vertex -28.9349 -1.23015 -0.0999994
      vertex -29.1692 -1.69012 2
      vertex -29.1692 -1.69012 -0.0999994
    endloop
  endfacet
  facet normal 0.156435 -0.987688 0
    outer loop
      vertex -28.1099 -0.630756 2
      vertex -27.6 -0.549999 -0.0999994
      vertex -27.6 -0.549999 2
    endloop
  endfacet
  facet normal 0.156435 -0.987688 0
    outer loop
      vertex -27.6 -0.549999 -0.0999994
      vertex -28.1099 -0.630756 2
      vertex -28.1099 -0.630756 -0.0999994
    endloop
  endfacet
  facet normal -0.987689 0.156432 0
    outer loop
      vertex -26.0308 -2.70988 -0.0999994
      vertex -25.95 -2.2 2
      vertex -25.95 -2.2 -0.0999994
    endloop
  endfacet
  facet normal -0.987689 0.156432 0
    outer loop
      vertex -25.95 -2.2 2
      vertex -26.0308 -2.70988 -0.0999994
      vertex -26.0308 -2.70988 2
    endloop
  endfacet
  facet normal 0.453992 -0.891006 0
    outer loop
      vertex -28.5698 -0.865122 2
      vertex -28.1099 -0.630756 -0.0999994
      vertex -28.1099 -0.630756 2
    endloop
  endfacet
  facet normal 0.453992 -0.891006 0
    outer loop
      vertex -28.1099 -0.630756 -0.0999994
      vertex -28.5698 -0.865122 2
      vertex -28.5698 -0.865122 -0.0999994
    endloop
  endfacet
  facet normal -0.707107 0.707107 0
    outer loop
      vertex -26.6302 -3.53488 -0.0999994
      vertex -26.2651 -3.16985 2
      vertex -26.2651 -3.16985 -0.0999994
    endloop
  endfacet
  facet normal -0.707107 0.707107 0
    outer loop
      vertex -26.2651 -3.16985 2
      vertex -26.6302 -3.53488 -0.0999994
      vertex -26.6302 -3.53488 2
    endloop
  endfacet
  facet normal 0.891006 0.453991 0
    outer loop
      vertex -28.9349 -3.16985 2
      vertex -29.1692 -2.70988 -0.0999994
      vertex -29.1692 -2.70988 2
    endloop
  endfacet
  facet normal 0.891006 0.453991 0
    outer loop
      vertex -29.1692 -2.70988 -0.0999994
      vertex -28.9349 -3.16985 2
      vertex -28.9349 -3.16985 -0.0999994
    endloop
  endfacet
  facet normal 0.987688 0.156435 0
    outer loop
      vertex -29.1692 -2.70988 2
      vertex -29.25 -2.2 -0.0999994
      vertex -29.25 -2.2 2
    endloop
  endfacet
  facet normal 0.987688 0.156435 0
    outer loop
      vertex -29.25 -2.2 -0.0999994
      vertex -29.1692 -2.70988 2
      vertex -29.1692 -2.70988 -0.0999994
    endloop
  endfacet
  facet normal -0.891006 0.453991 0
    outer loop
      vertex -26.2651 -3.16985 -0.0999994
      vertex -26.0308 -2.70988 2
      vertex -26.0308 -2.70988 -0.0999994
    endloop
  endfacet
  facet normal -0.891006 0.453991 0
    outer loop
      vertex -26.0308 -2.70988 2
      vertex -26.2651 -3.16985 -0.0999994
      vertex -26.2651 -3.16985 2
    endloop
  endfacet
  facet normal 0.156433 0.987689 -0
    outer loop
      vertex -27.6 -3.85 -0.0999994
      vertex -28.1099 -3.76924 2
      vertex -27.6 -3.85 2
    endloop
  endfacet
  facet normal 0.156433 0.987689 0
    outer loop
      vertex -28.1099 -3.76924 2
      vertex -27.6 -3.85 -0.0999994
      vertex -28.1099 -3.76924 -0.0999994
    endloop
  endfacet
  facet normal 0.707107 0.707107 0
    outer loop
      vertex -28.9349 -3.16985 2
      vertex -28.9 -3.20472 -0.0999994
      vertex -28.9349 -3.16985 -0.0999994
    endloop
  endfacet
  facet normal 0.707107 0.707107 0
    outer loop
      vertex -28.5698 -3.53488 2
      vertex -28.9 -3.20472 -0.0999994
      vertex -28.9349 -3.16985 2
    endloop
  endfacet
  facet normal 0.707107 0.707107 0
    outer loop
      vertex -28.9 -3.20472 -0.0999994
      vertex -28.5698 -3.53488 2
      vertex -28.5698 -3.53488 -0.0999994
    endloop
  endfacet
  facet normal 0.453992 0.891006 -0
    outer loop
      vertex -28.1099 -3.76924 -0.0999994
      vertex -28.5698 -3.53488 2
      vertex -28.1099 -3.76924 2
    endloop
  endfacet
  facet normal 0.453992 0.891006 0
    outer loop
      vertex -28.5698 -3.53488 2
      vertex -28.1099 -3.76924 -0.0999994
      vertex -28.5698 -3.53488 -0.0999994
    endloop
  endfacet
  facet normal 0.156436 -0.987688 0
    outer loop
      vertex 27.0901 -0.630756 2
      vertex 27.6 -0.549999 -0.0999985
      vertex 27.6 -0.549999 2
    endloop
  endfacet
  facet normal 0.156436 -0.987688 0
    outer loop
      vertex 27.6 -0.549999 -0.0999985
      vertex 27.0901 -0.630756 2
      vertex 27.0901 -0.630756 -0.0999985
    endloop
  endfacet
  facet normal 0.987689 -0.156432 0
    outer loop
      vertex 25.95 -2.2 2
      vertex 26.0308 -1.69012 -0.0999986
      vertex 26.0308 -1.69012 2
    endloop
  endfacet
  facet normal 0.987689 -0.156432 0
    outer loop
      vertex 26.0308 -1.69012 -0.0999986
      vertex 25.95 -2.2 2
      vertex 25.95 -2.2 -0.0999986
    endloop
  endfacet
  facet normal -0.156433 0.987689 0
    outer loop
      vertex 28.1099 -3.76924 -0.0999985
      vertex 27.6 -3.85 2
      vertex 28.1099 -3.76924 2
    endloop
  endfacet
  facet normal -0.156433 0.987689 0
    outer loop
      vertex 27.6 -3.85 2
      vertex 28.1099 -3.76924 -0.0999985
      vertex 27.6 -3.85 -0.0999985
    endloop
  endfacet
  facet normal -0.987688 -0.156435 0
    outer loop
      vertex 29.25 -2.2 -0.0999985
      vertex 29.1692 -1.69012 2
      vertex 29.1692 -1.69012 -0.0999985
    endloop
  endfacet
  facet normal -0.987688 -0.156435 0
    outer loop
      vertex 29.1692 -1.69012 2
      vertex 29.25 -2.2 -0.0999985
      vertex 29.25 -2.2 2
    endloop
  endfacet
  facet normal 0.45399 -0.891007 0
    outer loop
      vertex 26.6302 -0.865122 2
      vertex 27.0901 -0.630756 -0.0999985
      vertex 27.0901 -0.630756 2
    endloop
  endfacet
  facet normal 0.45399 -0.891007 0
    outer loop
      vertex 27.0901 -0.630756 -0.0999985
      vertex 26.6302 -0.865122 2
      vertex 26.6302 -0.865122 -0.0999986
    endloop
  endfacet
  facet normal 0.891006 0.453991 0
    outer loop
      vertex 26.2651 -3.16985 2
      vertex 26.0308 -2.70988 -0.0999986
      vertex 26.0308 -2.70988 2
    endloop
  endfacet
  facet normal 0.891006 0.453991 0
    outer loop
      vertex 26.0308 -2.70988 -0.0999986
      vertex 26.2651 -3.16985 2
      vertex 26.2651 -3.16985 -0.0999986
    endloop
  endfacet
  facet normal 0.156434 0.987688 -0
    outer loop
      vertex 27.6 -3.85 -0.0999985
      vertex 27.0901 -3.76924 2
      vertex 27.6 -3.85 2
    endloop
  endfacet
  facet normal 0.156434 0.987688 0
    outer loop
      vertex 27.0901 -3.76924 2
      vertex 27.6 -3.85 -0.0999985
      vertex 27.0901 -3.76924 -0.0999985
    endloop
  endfacet
  facet normal -0.156435 -0.987688 0
    outer loop
      vertex 27.6 -0.549999 2
      vertex 28.1099 -0.630756 -0.0999985
      vertex 28.1099 -0.630756 2
    endloop
  endfacet
  facet normal -0.156435 -0.987688 0
    outer loop
      vertex 28.1099 -0.630756 -0.0999985
      vertex 27.6 -0.549999 2
      vertex 27.6 -0.549999 -0.0999985
    endloop
  endfacet
  facet normal -0.891006 -0.453991 0
    outer loop
      vertex 29.1692 -1.69012 -0.0999985
      vertex 28.9349 -1.23015 2
      vertex 28.9349 -1.23015 -0.0999985
    endloop
  endfacet
  facet normal -0.891006 -0.453991 0
    outer loop
      vertex 28.9349 -1.23015 2
      vertex 29.1692 -1.69012 -0.0999985
      vertex 29.1692 -1.69012 2
    endloop
  endfacet
  facet normal -0.453991 0.891006 0
    outer loop
      vertex 28.2886 -3.6782 -0.0999985
      vertex 28.5698 -3.53488 2
      vertex 28.5698 -3.53488 -0.0999985
    endloop
  endfacet
  facet normal -0.453992 0.891006 1.67249e-07
    outer loop
      vertex 28.5698 -3.53488 2
      vertex 28.2886 -3.6782 -0.0999985
      vertex 28.1099 -3.76924 2
    endloop
  endfacet
  facet normal -0.453993 0.891005 0
    outer loop
      vertex 28.1099 -3.76924 2
      vertex 28.2886 -3.6782 -0.0999985
      vertex 28.1099 -3.76924 -0.0999985
    endloop
  endfacet
  facet normal -0.987688 0.156435 0
    outer loop
      vertex 29.1692 -2.70988 -0.0999985
      vertex 29.25 -2.2 2
      vertex 29.25 -2.2 -0.0999985
    endloop
  endfacet
  facet normal -0.987688 0.156435 0
    outer loop
      vertex 29.25 -2.2 2
      vertex 29.1692 -2.70988 -0.0999985
      vertex 29.1692 -2.70988 2
    endloop
  endfacet
  facet normal 0.707107 -0.707107 0
    outer loop
      vertex 26.2651 -1.23015 2
      vertex 26.6302 -0.865122 -0.0999986
      vertex 26.6302 -0.865122 2
    endloop
  endfacet
  facet normal 0.707107 -0.707107 0
    outer loop
      vertex 26.6302 -0.865122 -0.0999986
      vertex 26.2651 -1.23015 2
      vertex 26.2651 -1.23015 -0.0999986
    endloop
  endfacet
  facet normal 0.891006 -0.453991 0
    outer loop
      vertex 26.0308 -1.69012 2
      vertex 26.2651 -1.23015 -0.0999986
      vertex 26.2651 -1.23015 2
    endloop
  endfacet
  facet normal 0.891006 -0.453991 0
    outer loop
      vertex 26.2651 -1.23015 -0.0999986
      vertex 26.0308 -1.69012 2
      vertex 26.0308 -1.69012 -0.0999986
    endloop
  endfacet
  facet normal 0.987689 0.156432 0
    outer loop
      vertex 26.0308 -2.70988 2
      vertex 25.95 -2.2 -0.0999986
      vertex 25.95 -2.2 2
    endloop
  endfacet
  facet normal 0.987689 0.156432 0
    outer loop
      vertex 25.95 -2.2 -0.0999986
      vertex 26.0308 -2.70988 2
      vertex 26.0308 -2.70988 -0.0999986
    endloop
  endfacet
  facet normal 0.707107 0.707107 0
    outer loop
      vertex 26.6302 -3.53488 2
      vertex 26.2651 -3.16985 -0.0999986
      vertex 26.2651 -3.16985 2
    endloop
  endfacet
  facet normal 0.707107 0.707107 0
    outer loop
      vertex 26.2651 -3.16985 -0.0999986
      vertex 26.6302 -3.53488 2
      vertex 26.6302 -3.53488 -0.0999986
    endloop
  endfacet
  facet normal -0.707107 -0.707107 0
    outer loop
      vertex 28.9349 -1.23015 -0.0999985
      vertex 28.5698 -0.865122 2
      vertex 28.5698 -0.865122 -0.0999985
    endloop
  endfacet
  facet normal -0.707107 -0.707107 0
    outer loop
      vertex 28.5698 -0.865122 2
      vertex 28.9349 -1.23015 -0.0999985
      vertex 28.9349 -1.23015 2
    endloop
  endfacet
  facet normal -0.707107 0.707107 0
    outer loop
      vertex 28.5698 -3.53488 -0.0999985
      vertex 28.9349 -3.16985 2
      vertex 28.9349 -3.16985 -0.0999985
    endloop
  endfacet
  facet normal -0.707107 0.707107 0
    outer loop
      vertex 28.9349 -3.16985 2
      vertex 28.5698 -3.53488 -0.0999985
      vertex 28.5698 -3.53488 2
    endloop
  endfacet
  facet normal -0.891006 0.453991 0
    outer loop
      vertex 28.9349 -3.16985 -0.0999985
      vertex 29.1692 -2.70988 2
      vertex 29.1692 -2.70988 -0.0999985
    endloop
  endfacet
  facet normal -0.891006 0.453991 0
    outer loop
      vertex 29.1692 -2.70988 2
      vertex 28.9349 -3.16985 -0.0999985
      vertex 28.9349 -3.16985 2
    endloop
  endfacet
  facet normal 0.45398 0.891012 0
    outer loop
      vertex 27.033 -3.74015 -0.0999985
      vertex 27.0901 -3.76924 2
      vertex 27.0901 -3.76924 -0.0999985
    endloop
  endfacet
  facet normal 0.45399 0.891007 -3.45676e-07
    outer loop
      vertex 27.0901 -3.76924 2
      vertex 27.033 -3.74015 -0.0999985
      vertex 26.6302 -3.53488 2
    endloop
  endfacet
  facet normal 0.453992 0.891006 0
    outer loop
      vertex 26.6302 -3.53488 2
      vertex 27.033 -3.74015 -0.0999985
      vertex 26.6302 -3.53488 -0.0999986
    endloop
  endfacet
  facet normal -0.453992 -0.891006 0
    outer loop
      vertex 28.1099 -0.630756 2
      vertex 28.5698 -0.865122 -0.0999985
      vertex 28.5698 -0.865122 2
    endloop
  endfacet
  facet normal -0.453992 -0.891006 0
    outer loop
      vertex 28.5698 -0.865122 -0.0999985
      vertex 28.1099 -0.630756 2
      vertex 28.1099 -0.630756 -0.0999985
    endloop
  endfacet
  facet normal 0.987689 0.156431 0
    outer loop
      vertex 26.0308 32.1701 2
      vertex 25.95 32.68 -0.0999986
      vertex 25.95 32.68 2
    endloop
  endfacet
  facet normal 0.987689 0.156431 0
    outer loop
      vertex 25.95 32.68 -0.0999986
      vertex 26.0308 32.1701 2
      vertex 26.0308 32.1701 -0.0999986
    endloop
  endfacet
  facet normal -0.156435 -0.987688 0
    outer loop
      vertex 27.6 34.33 2
      vertex 28.1099 34.2492 -0.0999985
      vertex 28.1099 34.2492 2
    endloop
  endfacet
  facet normal -0.156435 -0.987688 0
    outer loop
      vertex 28.1099 34.2492 -0.0999985
      vertex 27.6 34.33 2
      vertex 27.6 34.33 -0.0999985
    endloop
  endfacet
  facet normal -0.891007 -0.45399 0
    outer loop
      vertex 29.1692 33.1899 -0.0999985
      vertex 28.9349 33.6498 2
      vertex 28.9349 33.6498 -0.0999985
    endloop
  endfacet
  facet normal -0.891007 -0.45399 0
    outer loop
      vertex 28.9349 33.6498 2
      vertex 29.1692 33.1899 -0.0999985
      vertex 29.1692 33.1899 2
    endloop
  endfacet
  facet normal 0.891006 0.453992 0
    outer loop
      vertex 26.2651 31.7102 2
      vertex 26.0308 32.1701 -0.0999986
      vertex 26.0308 32.1701 2
    endloop
  endfacet
  facet normal 0.891006 0.453992 0
    outer loop
      vertex 26.0308 32.1701 -0.0999986
      vertex 26.2651 31.7102 2
      vertex 26.2651 31.7102 -0.0999986
    endloop
  endfacet
  facet normal 0.156436 0.987688 -0
    outer loop
      vertex 27.6 31.03 -0.0999985
      vertex 27.0901 31.1108 2
      vertex 27.6 31.03 2
    endloop
  endfacet
  facet normal 0.156436 0.987688 0
    outer loop
      vertex 27.0901 31.1108 2
      vertex 27.6 31.03 -0.0999985
      vertex 27.0901 31.1108 -0.0999985
    endloop
  endfacet
  facet normal -0.891006 0.453992 0
    outer loop
      vertex 28.9349 31.7102 -0.0999985
      vertex 29.1692 32.1701 2
      vertex 29.1692 32.1701 -0.0999985
    endloop
  endfacet
  facet normal -0.891006 0.453992 0
    outer loop
      vertex 29.1692 32.1701 2
      vertex 28.9349 31.7102 -0.0999985
      vertex 28.9349 31.7102 2
    endloop
  endfacet
  facet normal -0.453992 0.891006 0
    outer loop
      vertex 28.5698 31.3451 -0.0999985
      vertex 28.1099 31.1108 2
      vertex 28.5698 31.3451 2
    endloop
  endfacet
  facet normal -0.453992 0.891006 0
    outer loop
      vertex 28.1099 31.1108 2
      vertex 28.5698 31.3451 -0.0999985
      vertex 28.1099 31.1108 -0.0999985
    endloop
  endfacet
  facet normal 0.707107 -0.707107 0
    outer loop
      vertex 26.2651 33.6498 2
      vertex 26.6302 34.0149 -0.0999986
      vertex 26.6302 34.0149 2
    endloop
  endfacet
  facet normal 0.707107 -0.707107 0
    outer loop
      vertex 26.6302 34.0149 -0.0999986
      vertex 26.2651 33.6498 2
      vertex 26.2651 33.6498 -0.0999986
    endloop
  endfacet
  facet normal 0.156436 -0.987688 0
    outer loop
      vertex 27.0901 34.2492 2
      vertex 27.6 34.33 -0.0999985
      vertex 27.6 34.33 2
    endloop
  endfacet
  facet normal 0.156436 -0.987688 0
    outer loop
      vertex 27.6 34.33 -0.0999985
      vertex 27.0901 34.2492 2
      vertex 27.0901 34.2492 -0.0999985
    endloop
  endfacet
  facet normal 0.891007 -0.45399 0
    outer loop
      vertex 26.0308 33.1899 2
      vertex 26.2651 33.6498 -0.0999986
      vertex 26.2651 33.6498 2
    endloop
  endfacet
  facet normal 0.891007 -0.45399 0
    outer loop
      vertex 26.2651 33.6498 -0.0999986
      vertex 26.0308 33.1899 2
      vertex 26.0308 33.1899 -0.0999986
    endloop
  endfacet
  facet normal -0.987688 -0.156436 0
    outer loop
      vertex 29.25 32.68 -0.0999985
      vertex 29.1692 33.1899 2
      vertex 29.1692 33.1899 -0.0999985
    endloop
  endfacet
  facet normal -0.987688 -0.156436 0
    outer loop
      vertex 29.1692 33.1899 2
      vertex 29.25 32.68 -0.0999985
      vertex 29.25 32.68 2
    endloop
  endfacet
  facet normal 0.707107 0.707107 0
    outer loop
      vertex 26.6302 31.3451 2
      vertex 26.2651 31.7102 -0.0999986
      vertex 26.2651 31.7102 2
    endloop
  endfacet
  facet normal 0.707107 0.707107 0
    outer loop
      vertex 26.2651 31.7102 -0.0999986
      vertex 26.6302 31.3451 2
      vertex 26.6302 31.3451 -0.0999986
    endloop
  endfacet
  facet normal -0.156435 0.987688 0
    outer loop
      vertex 28.1099 31.1108 -0.0999985
      vertex 27.6 31.03 2
      vertex 28.1099 31.1108 2
    endloop
  endfacet
  facet normal -0.156435 0.987688 0
    outer loop
      vertex 27.6 31.03 2
      vertex 28.1099 31.1108 -0.0999985
      vertex 27.6 31.03 -0.0999985
    endloop
  endfacet
  facet normal -0.987688 0.156435 0
    outer loop
      vertex 29.1692 32.1701 -0.0999985
      vertex 29.25 32.68 2
      vertex 29.25 32.68 -0.0999985
    endloop
  endfacet
  facet normal -0.987688 0.156435 0
    outer loop
      vertex 29.25 32.68 2
      vertex 29.1692 32.1701 -0.0999985
      vertex 29.1692 32.1701 2
    endloop
  endfacet
  facet normal -0.707107 0.707107 0
    outer loop
      vertex 28.5698 31.3451 -0.0999985
      vertex 28.9349 31.7102 2
      vertex 28.9349 31.7102 -0.0999985
    endloop
  endfacet
  facet normal -0.707107 0.707107 0
    outer loop
      vertex 28.9349 31.7102 2
      vertex 28.5698 31.3451 -0.0999985
      vertex 28.5698 31.3451 2
    endloop
  endfacet
  facet normal 0.987689 -0.156432 0
    outer loop
      vertex 25.95 32.68 2
      vertex 26.0308 33.1899 -0.0999986
      vertex 26.0308 33.1899 2
    endloop
  endfacet
  facet normal 0.987689 -0.156432 0
    outer loop
      vertex 26.0308 33.1899 -0.0999986
      vertex 25.95 32.68 2
      vertex 25.95 32.68 -0.0999986
    endloop
  endfacet
  facet normal 0.453993 -0.891005 5.65435e-07
    outer loop
      vertex 26.6302 34.0149 2
      vertex 27.033 34.2201 -0.0999985
      vertex 27.0901 34.2492 2
    endloop
  endfacet
  facet normal 0.453991 -0.891006 0
    outer loop
      vertex 27.033 34.2201 -0.0999985
      vertex 26.6302 34.0149 2
      vertex 26.6302 34.0149 -0.0999986
    endloop
  endfacet
  facet normal 0.45401 -0.890997 0
    outer loop
      vertex 27.0901 34.2492 2
      vertex 27.033 34.2201 -0.0999985
      vertex 27.0901 34.2492 -0.0999985
    endloop
  endfacet
  facet normal -0.707107 -0.707107 0
    outer loop
      vertex 28.9349 33.6498 -0.0999985
      vertex 28.5698 34.0149 2
      vertex 28.5698 34.0149 -0.0999985
    endloop
  endfacet
  facet normal -0.707107 -0.707107 0
    outer loop
      vertex 28.5698 34.0149 2
      vertex 28.9349 33.6498 -0.0999985
      vertex 28.9349 33.6498 2
    endloop
  endfacet
  facet normal -0.453995 -0.891004 4.74643e-08
    outer loop
      vertex 28.2886 34.1582 -0.0999985
      vertex 28.5698 34.0149 2
      vertex 28.1099 34.2492 2
    endloop
  endfacet
  facet normal -0.453995 -0.891004 0
    outer loop
      vertex 28.2886 34.1582 -0.0999985
      vertex 28.1099 34.2492 2
      vertex 28.1099 34.2492 -0.0999985
    endloop
  endfacet
  facet normal -0.453994 -0.891005 -0
    outer loop
      vertex 28.5698 34.0149 2
      vertex 28.2886 34.1582 -0.0999985
      vertex 28.5698 34.0149 -0.0999985
    endloop
  endfacet
  facet normal 0.45399 0.891007 -0
    outer loop
      vertex 27.0901 31.1108 -0.0999985
      vertex 26.6302 31.3451 2
      vertex 27.0901 31.1108 2
    endloop
  endfacet
  facet normal 0.45399 0.891007 0
    outer loop
      vertex 26.6302 31.3451 2
      vertex 27.0901 31.1108 -0.0999985
      vertex 26.6302 31.3451 -0.0999986
    endloop
  endfacet
  facet normal -0.156436 0.987688 0
    outer loop
      vertex -27.0901 31.1108 -0.0999994
      vertex -27.6 31.03 2
      vertex -27.0901 31.1108 2
    endloop
  endfacet
  facet normal -0.156436 0.987688 0
    outer loop
      vertex -27.6 31.03 2
      vertex -27.0901 31.1108 -0.0999994
      vertex -27.6 31.03 -0.0999994
    endloop
  endfacet
  facet normal -0.156436 -0.987688 0
    outer loop
      vertex -27.6 34.33 2
      vertex -27.0901 34.2492 -0.0999994
      vertex -27.0901 34.2492 2
    endloop
  endfacet
  facet normal -0.156436 -0.987688 0
    outer loop
      vertex -27.0901 34.2492 -0.0999994
      vertex -27.6 34.33 2
      vertex -27.6 34.33 -0.0999994
    endloop
  endfacet
  facet normal -0.987689 -0.156432 0
    outer loop
      vertex -25.95 32.68 -0.0999994
      vertex -26.0308 33.1899 2
      vertex -26.0308 33.1899 -0.0999994
    endloop
  endfacet
  facet normal -0.987689 -0.156432 0
    outer loop
      vertex -26.0308 33.1899 2
      vertex -25.95 32.68 -0.0999994
      vertex -25.95 32.68 2
    endloop
  endfacet
  facet normal -0.707107 0.707107 0
    outer loop
      vertex -26.6302 31.3451 -0.0999994
      vertex -26.2651 31.7102 2
      vertex -26.2651 31.7102 -0.0999994
    endloop
  endfacet
  facet normal -0.707107 0.707107 0
    outer loop
      vertex -26.2651 31.7102 2
      vertex -26.6302 31.3451 -0.0999994
      vertex -26.6302 31.3451 2
    endloop
  endfacet
  facet normal -0.45399 0.891007 0
    outer loop
      vertex -26.6302 31.3451 -0.0999994
      vertex -27.0901 31.1108 2
      vertex -26.6302 31.3451 2
    endloop
  endfacet
  facet normal -0.45399 0.891007 0
    outer loop
      vertex -27.0901 31.1108 2
      vertex -26.6302 31.3451 -0.0999994
      vertex -27.0901 31.1108 -0.0999994
    endloop
  endfacet
  facet normal -0.987689 0.156431 0
    outer loop
      vertex -26.0308 32.1701 -0.0999994
      vertex -25.95 32.68 2
      vertex -25.95 32.68 -0.0999994
    endloop
  endfacet
  facet normal -0.987689 0.156431 0
    outer loop
      vertex -25.95 32.68 2
      vertex -26.0308 32.1701 -0.0999994
      vertex -26.0308 32.1701 2
    endloop
  endfacet
  facet normal -0.891007 -0.45399 0
    outer loop
      vertex -26.0308 33.1899 -0.0999994
      vertex -26.2651 33.6498 2
      vertex -26.2651 33.6498 -0.0999994
    endloop
  endfacet
  facet normal -0.891007 -0.45399 0
    outer loop
      vertex -26.2651 33.6498 2
      vertex -26.0308 33.1899 -0.0999994
      vertex -26.0308 33.1899 2
    endloop
  endfacet
  facet normal -0.453993 -0.891005 0
    outer loop
      vertex -27.0901 34.2492 2
      vertex -26.6302 34.0149 -0.0999994
      vertex -26.6302 34.0149 2
    endloop
  endfacet
  facet normal -0.453993 -0.891005 0
    outer loop
      vertex -26.6302 34.0149 -0.0999994
      vertex -27.0901 34.2492 2
      vertex -27.0901 34.2492 -0.0999994
    endloop
  endfacet
  facet normal -0.707107 -0.707107 0
    outer loop
      vertex -26.2651 33.6498 -0.0999994
      vertex -26.6302 34.0149 2
      vertex -26.6302 34.0149 -0.0999994
    endloop
  endfacet
  facet normal -0.707107 -0.707107 0
    outer loop
      vertex -26.6302 34.0149 2
      vertex -26.2651 33.6498 -0.0999994
      vertex -26.2651 33.6498 2
    endloop
  endfacet
  facet normal 0.891006 0.453992 0
    outer loop
      vertex -28.9349 31.7102 2
      vertex -29.1692 32.1701 -0.0999994
      vertex -29.1692 32.1701 2
    endloop
  endfacet
  facet normal 0.891006 0.453992 0
    outer loop
      vertex -29.1692 32.1701 -0.0999994
      vertex -28.9349 31.7102 2
      vertex -28.9349 31.7102 -0.0999994
    endloop
  endfacet
  facet normal 0.707107 0.707107 0
    outer loop
      vertex -28.9349 31.7102 2
      vertex -28.9 31.6753 -0.0999994
      vertex -28.9349 31.7102 -0.0999994
    endloop
  endfacet
  facet normal 0.707107 0.707107 0
    outer loop
      vertex -28.5698 31.3451 2
      vertex -28.9 31.6753 -0.0999994
      vertex -28.9349 31.7102 2
    endloop
  endfacet
  facet normal 0.707107 0.707107 0
    outer loop
      vertex -28.9 31.6753 -0.0999994
      vertex -28.5698 31.3451 2
      vertex -28.5698 31.3451 -0.0999994
    endloop
  endfacet
  facet normal 0.156435 0.987688 -0
    outer loop
      vertex -27.6 31.03 -0.0999994
      vertex -28.1099 31.1108 2
      vertex -27.6 31.03 2
    endloop
  endfacet
  facet normal 0.156435 0.987688 0
    outer loop
      vertex -28.1099 31.1108 2
      vertex -27.6 31.03 -0.0999994
      vertex -28.1099 31.1108 -0.0999994
    endloop
  endfacet
  facet normal 0.891007 -0.45399 0
    outer loop
      vertex -29.1692 33.1899 2
      vertex -28.9349 33.6498 -0.0999994
      vertex -28.9349 33.6498 2
    endloop
  endfacet
  facet normal 0.891007 -0.45399 0
    outer loop
      vertex -28.9349 33.6498 -0.0999994
      vertex -29.1692 33.1899 2
      vertex -29.1692 33.1899 -0.0999994
    endloop
  endfacet
  facet normal -0.891006 0.453992 0
    outer loop
      vertex -26.2651 31.7102 -0.0999994
      vertex -26.0308 32.1701 2
      vertex -26.0308 32.1701 -0.0999994
    endloop
  endfacet
  facet normal -0.891006 0.453992 0
    outer loop
      vertex -26.0308 32.1701 2
      vertex -26.2651 31.7102 -0.0999994
      vertex -26.2651 31.7102 2
    endloop
  endfacet
  facet normal 0.156435 -0.987688 0
    outer loop
      vertex -28.1099 34.2492 2
      vertex -27.6 34.33 -0.0999994
      vertex -27.6 34.33 2
    endloop
  endfacet
  facet normal 0.156435 -0.987688 0
    outer loop
      vertex -27.6 34.33 -0.0999994
      vertex -28.1099 34.2492 2
      vertex -28.1099 34.2492 -0.0999994
    endloop
  endfacet
  facet normal 0.707107 -0.707107 0
    outer loop
      vertex -28.5698 34.0149 2
      vertex -28.9 33.6847 -0.0999994
      vertex -28.5698 34.0149 -0.0999994
    endloop
  endfacet
  facet normal 0.707107 -0.707107 0
    outer loop
      vertex -28.9349 33.6498 2
      vertex -28.9 33.6847 -0.0999994
      vertex -28.5698 34.0149 2
    endloop
  endfacet
  facet normal 0.707107 -0.707107 0
    outer loop
      vertex -28.9 33.6847 -0.0999994
      vertex -28.9349 33.6498 2
      vertex -28.9349 33.6498 -0.0999994
    endloop
  endfacet
  facet normal 0.453992 0.891006 -0
    outer loop
      vertex -28.1099 31.1108 -0.0999994
      vertex -28.5698 31.3451 2
      vertex -28.1099 31.1108 2
    endloop
  endfacet
  facet normal 0.453992 0.891006 0
    outer loop
      vertex -28.5698 31.3451 2
      vertex -28.1099 31.1108 -0.0999994
      vertex -28.5698 31.3451 -0.0999994
    endloop
  endfacet
  facet normal 0.987688 0.156435 0
    outer loop
      vertex -29.1692 32.1701 2
      vertex -29.25 32.68 -0.0999994
      vertex -29.25 32.68 2
    endloop
  endfacet
  facet normal 0.987688 0.156435 0
    outer loop
      vertex -29.25 32.68 -0.0999994
      vertex -29.1692 32.1701 2
      vertex -29.1692 32.1701 -0.0999994
    endloop
  endfacet
  facet normal 0.987688 -0.156436 0
    outer loop
      vertex -29.25 32.68 2
      vertex -29.1692 33.1899 -0.0999994
      vertex -29.1692 33.1899 2
    endloop
  endfacet
  facet normal 0.987688 -0.156436 0
    outer loop
      vertex -29.1692 33.1899 -0.0999994
      vertex -29.25 32.68 2
      vertex -29.25 32.68 -0.0999994
    endloop
  endfacet
  facet normal 0.453995 -0.891004 0
    outer loop
      vertex -28.5698 34.0149 2
      vertex -28.1099 34.2492 -0.0999994
      vertex -28.1099 34.2492 2
    endloop
  endfacet
  facet normal 0.453995 -0.891004 0
    outer loop
      vertex -28.1099 34.2492 -0.0999994
      vertex -28.5698 34.0149 2
      vertex -28.5698 34.0149 -0.0999994
    endloop
  endfacet
endsolid OpenSCAD_Model
