solid OpenSCAD_Model
  facet normal 0.994522 0.104529 0
    outer loop
      vertex 10 0 3
      vertex 9.78148 2.07912 0
      vertex 9.78148 2.07912 3
    endloop
  endfacet
  facet normal 0.994522 0.104529 0
    outer loop
      vertex 9.78148 2.07912 0
      vertex 10 0 3
      vertex 10 0 0
    endloop
  endfacet
  facet normal -0.994522 0.104529 0
    outer loop
      vertex -10 0 0
      vertex -9.78148 2.07912 3
      vertex -9.78148 2.07912 0
    endloop
  endfacet
  facet normal -0.994522 0.104529 0
    outer loop
      vertex -9.78148 2.07912 3
      vertex -10 0 0
      vertex -10 0 3
    endloop
  endfacet
  facet normal 0 1 -0
    outer loop
      vertex 1.04528 9.94522 0
      vertex -1.04528 9.94522 3
      vertex 1.04528 9.94522 3
    endloop
  endfacet
  facet normal 0 1 0
    outer loop
      vertex -1.04528 9.94522 3
      vertex 1.04528 9.94522 0
      vertex -1.04528 9.94522 0
    endloop
  endfacet
  facet normal 0.587785 0.809017 -0
    outer loop
      vertex 6.69131 7.43145 0
      vertex 5 8.66025 3
      vertex 6.69131 7.43145 3
    endloop
  endfacet
  facet normal 0.587785 0.809017 0
    outer loop
      vertex 5 8.66025 3
      vertex 6.69131 7.43145 0
      vertex 5 8.66025 0
    endloop
  endfacet
  facet normal 0.406737 0.913545 -0
    outer loop
      vertex 5 8.66025 0
      vertex 3.09017 9.51056 3
      vertex 5 8.66025 3
    endloop
  endfacet
  facet normal 0.406737 0.913545 0
    outer loop
      vertex 3.09017 9.51056 3
      vertex 5 8.66025 0
      vertex 3.09017 9.51056 0
    endloop
  endfacet
  facet normal -0.743145 0.669131 0
    outer loop
      vertex -8.09017 5.87785 0
      vertex -6.69131 7.43145 3
      vertex -6.69131 7.43145 0
    endloop
  endfacet
  facet normal -0.743145 0.669131 0
    outer loop
      vertex -6.69131 7.43145 3
      vertex -8.09017 5.87785 0
      vertex -8.09017 5.87785 3
    endloop
  endfacet
  facet normal -0.866026 0.5 0
    outer loop
      vertex -9.13545 4.06737 0
      vertex -8.09017 5.87785 3
      vertex -8.09017 5.87785 0
    endloop
  endfacet
  facet normal -0.866026 0.5 0
    outer loop
      vertex -8.09017 5.87785 3
      vertex -9.13545 4.06737 0
      vertex -9.13545 4.06737 3
    endloop
  endfacet
  facet normal -0.406737 0.913545 0
    outer loop
      vertex -3.09017 9.51056 0
      vertex -5 8.66025 3
      vertex -3.09017 9.51056 3
    endloop
  endfacet
  facet normal -0.406737 0.913545 0
    outer loop
      vertex -5 8.66025 3
      vertex -3.09017 9.51056 0
      vertex -5 8.66025 0
    endloop
  endfacet
  facet normal 0.866026 0.5 0
    outer loop
      vertex 9.13545 4.06737 3
      vertex 8.09017 5.87785 0
      vertex 8.09017 5.87785 3
    endloop
  endfacet
  facet normal 0.866026 0.5 0
    outer loop
      vertex 8.09017 5.87785 0
      vertex 9.13545 4.06737 3
      vertex 9.13545 4.06737 0
    endloop
  endfacet
  facet normal 0.951057 0.309017 0
    outer loop
      vertex 9.78148 2.07912 3
      vertex 9.13545 4.06737 0
      vertex 9.13545 4.06737 3
    endloop
  endfacet
  facet normal 0.951057 0.309017 0
    outer loop
      vertex 9.13545 4.06737 0
      vertex 9.78148 2.07912 3
      vertex 9.78148 2.07912 0
    endloop
  endfacet
  facet normal 0.743145 0.669131 0
    outer loop
      vertex 8.09017 5.87785 3
      vertex 6.69131 7.43145 0
      vertex 6.69131 7.43145 3
    endloop
  endfacet
  facet normal 0.743145 0.669131 0
    outer loop
      vertex 6.69131 7.43145 0
      vertex 8.09017 5.87785 3
      vertex 8.09017 5.87785 0
    endloop
  endfacet
  facet normal 0.207911 0.978148 -0
    outer loop
      vertex 3.09017 9.51056 0
      vertex 1.04528 9.94522 3
      vertex 3.09017 9.51056 3
    endloop
  endfacet
  facet normal 0.207911 0.978148 0
    outer loop
      vertex 1.04528 9.94522 3
      vertex 3.09017 9.51056 0
      vertex 1.04528 9.94522 0
    endloop
  endfacet
  facet normal -0.951057 0.309017 0
    outer loop
      vertex -9.78148 2.07912 0
      vertex -9.13545 4.06737 3
      vertex -9.13545 4.06737 0
    endloop
  endfacet
  facet normal -0.951057 0.309017 0
    outer loop
      vertex -9.13545 4.06737 3
      vertex -9.78148 2.07912 0
      vertex -9.78148 2.07912 3
    endloop
  endfacet
  facet normal 0 0 1
    outer loop
      vertex 9 4 3
      vertex 10 0 3
      vertex 9.78148 2.07912 3
    endloop
  endfacet
  facet normal -0 0 1
    outer loop
      vertex 9 4 3
      vertex 9.78148 2.07912 3
      vertex 9.13545 4.06737 3
    endloop
  endfacet
  facet normal 0 0 1
    outer loop
      vertex 9 -4 3
      vertex 10 0 3
      vertex 9 4 3
    endloop
  endfacet
  facet normal 0 0 1
    outer loop
      vertex 10 0 3
      vertex 9 -4 3
      vertex 9.78148 -2.07912 3
    endloop
  endfacet
  facet normal 0 0 1
    outer loop
      vertex 8.09017 5.87785 3
      vertex 9 4 3
      vertex 9.13545 4.06737 3
    endloop
  endfacet
  facet normal 0 0 1
    outer loop
      vertex 6.69131 7.43145 3
      vertex 9 4 3
      vertex 8.09017 5.87785 3
    endloop
  endfacet
  facet normal 0 0 1
    outer loop
      vertex 5 8.66025 3
      vertex 9 4 3
      vertex 6.69131 7.43145 3
    endloop
  endfacet
  facet normal 0 0 1
    outer loop
      vertex 3.09017 9.51056 3
      vertex 9 4 3
      vertex 5 8.66025 3
    endloop
  endfacet
  facet normal 0 0 1
    outer loop
      vertex 1.04528 9.94522 3
      vertex 9 4 3
      vertex 3.09017 9.51056 3
    endloop
  endfacet
  facet normal -0 0 1
    outer loop
      vertex -1.04528 9.94522 3
      vertex 9 4 3
      vertex 1.04528 9.94522 3
    endloop
  endfacet
  facet normal -0 0 1
    outer loop
      vertex -3.09017 9.51056 3
      vertex 9 4 3
      vertex -1.04528 9.94522 3
    endloop
  endfacet
  facet normal 0 0 1
    outer loop
      vertex -9 4 3
      vertex -3.09017 9.51056 3
      vertex -5 8.66025 3
    endloop
  endfacet
  facet normal 0 0 1
    outer loop
      vertex -9 4 3
      vertex -5 8.66025 3
      vertex -6.69131 7.43145 3
    endloop
  endfacet
  facet normal 0 0 1
    outer loop
      vertex -9 4 3
      vertex -6.69131 7.43145 3
      vertex -8.09017 5.87785 3
    endloop
  endfacet
  facet normal 0 0 1
    outer loop
      vertex -3.09017 9.51056 3
      vertex -9 4 3
      vertex 9 4 3
    endloop
  endfacet
  facet normal 0 0 1
    outer loop
      vertex -9.78148 2.07912 3
      vertex -9 4 3
      vertex -9.13545 4.06737 3
    endloop
  endfacet
  facet normal -0 0 1
    outer loop
      vertex -9.13545 4.06737 3
      vertex -9 4 3
      vertex -8.09017 5.87785 3
    endloop
  endfacet
  facet normal 0 0 1
    outer loop
      vertex 9.78148 -2.07912 3
      vertex 9 -4 3
      vertex 9.13545 -4.06737 3
    endloop
  endfacet
  facet normal 0 0 1
    outer loop
      vertex 9 -4 3
      vertex 8.09017 -5.87785 3
      vertex 9.13545 -4.06737 3
    endloop
  endfacet
  facet normal 0 0 1
    outer loop
      vertex 9 -4 3
      vertex 6.69131 -7.43145 3
      vertex 8.09017 -5.87785 3
    endloop
  endfacet
  facet normal 0 0 1
    outer loop
      vertex 9 -4 3
      vertex 5 -8.66025 3
      vertex 6.69131 -7.43145 3
    endloop
  endfacet
  facet normal 0 0 1
    outer loop
      vertex 9 -4 3
      vertex 3.09017 -9.51056 3
      vertex 5 -8.66025 3
    endloop
  endfacet
  facet normal 0 0 1
    outer loop
      vertex 9 -4 3
      vertex 1.04528 -9.94522 3
      vertex 3.09017 -9.51056 3
    endloop
  endfacet
  facet normal 0 0 1
    outer loop
      vertex 9 -4 3
      vertex -1.04528 -9.94522 3
      vertex 1.04528 -9.94522 3
    endloop
  endfacet
  facet normal 0 0 1
    outer loop
      vertex 9 -4 3
      vertex -3.09017 -9.51056 3
      vertex -1.04528 -9.94522 3
    endloop
  endfacet
  facet normal -0 0 1
    outer loop
      vertex -9 -4 3
      vertex -3.09017 -9.51056 3
      vertex 9 -4 3
    endloop
  endfacet
  facet normal 0 0 1
    outer loop
      vertex -3.09017 -9.51056 3
      vertex -9 -4 3
      vertex -5 -8.66025 3
    endloop
  endfacet
  facet normal 0 0 1
    outer loop
      vertex -5 -8.66025 3
      vertex -9 -4 3
      vertex -6.69131 -7.43145 3
    endloop
  endfacet
  facet normal 0 0 1
    outer loop
      vertex -6.69131 -7.43145 3
      vertex -9 -4 3
      vertex -8.09017 -5.87785 3
    endloop
  endfacet
  facet normal 0 0 1
    outer loop
      vertex -9 -4 3
      vertex -9.13545 -4.06737 3
      vertex -8.09017 -5.87785 3
    endloop
  endfacet
  facet normal 0 0 1
    outer loop
      vertex -10 0 3
      vertex -9 4 3
      vertex -9.78148 2.07912 3
    endloop
  endfacet
  facet normal 0 0 1
    outer loop
      vertex -9 4 3
      vertex -10 0 3
      vertex -9 -4 3
    endloop
  endfacet
  facet normal 0 0 1
    outer loop
      vertex -9 -4 3
      vertex -9.78148 -2.07912 3
      vertex -9.13545 -4.06737 3
    endloop
  endfacet
  facet normal 0 0 1
    outer loop
      vertex -9 -4 3
      vertex -10 0 3
      vertex -9.78148 -2.07912 3
    endloop
  endfacet
  facet normal -0.587785 0.809017 0
    outer loop
      vertex -5 8.66025 0
      vertex -6.69131 7.43145 3
      vertex -5 8.66025 3
    endloop
  endfacet
  facet normal -0.587785 0.809017 0
    outer loop
      vertex -6.69131 7.43145 3
      vertex -5 8.66025 0
      vertex -6.69131 7.43145 0
    endloop
  endfacet
  facet normal -0.207911 0.978148 0
    outer loop
      vertex -1.04528 9.94522 0
      vertex -3.09017 9.51056 3
      vertex -1.04528 9.94522 3
    endloop
  endfacet
  facet normal -0.207911 0.978148 0
    outer loop
      vertex -3.09017 9.51056 3
      vertex -1.04528 9.94522 0
      vertex -3.09017 9.51056 0
    endloop
  endfacet
  facet normal 0.994522 -0.104529 0
    outer loop
      vertex 9.78148 -2.07912 3
      vertex 10 0 0
      vertex 10 0 3
    endloop
  endfacet
  facet normal 0.994522 -0.104529 0
    outer loop
      vertex 10 0 0
      vertex 9.78148 -2.07912 3
      vertex 9.78148 -2.07912 0
    endloop
  endfacet
  facet normal -0.207911 -0.978148 0
    outer loop
      vertex -3.09017 -9.51056 0
      vertex -1.04528 -9.94522 3
      vertex -3.09017 -9.51056 3
    endloop
  endfacet
  facet normal -0.207911 -0.978148 -0
    outer loop
      vertex -1.04528 -9.94522 3
      vertex -3.09017 -9.51056 0
      vertex -1.04528 -9.94522 0
    endloop
  endfacet
  facet normal 0.207911 -0.978148 0
    outer loop
      vertex 1.04528 -9.94522 0
      vertex 3.09017 -9.51056 3
      vertex 1.04528 -9.94522 3
    endloop
  endfacet
  facet normal 0.207911 -0.978148 0
    outer loop
      vertex 3.09017 -9.51056 3
      vertex 1.04528 -9.94522 0
      vertex 3.09017 -9.51056 0
    endloop
  endfacet
  facet normal 0.743145 -0.669131 0
    outer loop
      vertex 6.69131 -7.43145 3
      vertex 8.09017 -5.87785 0
      vertex 8.09017 -5.87785 3
    endloop
  endfacet
  facet normal 0.743145 -0.669131 0
    outer loop
      vertex 8.09017 -5.87785 0
      vertex 6.69131 -7.43145 3
      vertex 6.69131 -7.43145 0
    endloop
  endfacet
  facet normal 0.951057 -0.309017 0
    outer loop
      vertex 9.13545 -4.06737 3
      vertex 9.78148 -2.07912 0
      vertex 9.78148 -2.07912 3
    endloop
  endfacet
  facet normal 0.951057 -0.309017 0
    outer loop
      vertex 9.78148 -2.07912 0
      vertex 9.13545 -4.06737 3
      vertex 9.13545 -4.06737 0
    endloop
  endfacet
  facet normal 0.866026 -0.5 0
    outer loop
      vertex 8.09017 -5.87785 3
      vertex 9.13545 -4.06737 0
      vertex 9.13545 -4.06737 3
    endloop
  endfacet
  facet normal 0.866026 -0.5 0
    outer loop
      vertex 9.13545 -4.06737 0
      vertex 8.09017 -5.87785 3
      vertex 8.09017 -5.87785 0
    endloop
  endfacet
  facet normal -0.866026 -0.5 0
    outer loop
      vertex -8.09017 -5.87785 0
      vertex -9.13545 -4.06737 3
      vertex -9.13545 -4.06737 0
    endloop
  endfacet
  facet normal -0.866026 -0.5 0
    outer loop
      vertex -9.13545 -4.06737 3
      vertex -8.09017 -5.87785 0
      vertex -8.09017 -5.87785 3
    endloop
  endfacet
  facet normal -0.994522 -0.104529 0
    outer loop
      vertex -9.78148 -2.07912 0
      vertex -10 0 3
      vertex -10 0 0
    endloop
  endfacet
  facet normal -0.994522 -0.104529 0
    outer loop
      vertex -10 0 3
      vertex -9.78148 -2.07912 0
      vertex -9.78148 -2.07912 3
    endloop
  endfacet
  facet normal -0.951057 -0.309017 0
    outer loop
      vertex -9.13545 -4.06737 0
      vertex -9.78148 -2.07912 3
      vertex -9.78148 -2.07912 0
    endloop
  endfacet
  facet normal -0.951057 -0.309017 0
    outer loop
      vertex -9.78148 -2.07912 3
      vertex -9.13545 -4.06737 0
      vertex -9.13545 -4.06737 3
    endloop
  endfacet
  facet normal 0.587785 -0.809017 0
    outer loop
      vertex 5 -8.66025 0
      vertex 6.69131 -7.43145 3
      vertex 5 -8.66025 3
    endloop
  endfacet
  facet normal 0.587785 -0.809017 0
    outer loop
      vertex 6.69131 -7.43145 3
      vertex 5 -8.66025 0
      vertex 6.69131 -7.43145 0
    endloop
  endfacet
  facet normal 0.406737 -0.913545 0
    outer loop
      vertex 3.09017 -9.51056 0
      vertex 5 -8.66025 3
      vertex 3.09017 -9.51056 3
    endloop
  endfacet
  facet normal 0.406737 -0.913545 0
    outer loop
      vertex 5 -8.66025 3
      vertex 3.09017 -9.51056 0
      vertex 5 -8.66025 0
    endloop
  endfacet
  facet normal 0 -1 0
    outer loop
      vertex -1.04528 -9.94522 0
      vertex 1.04528 -9.94522 3
      vertex -1.04528 -9.94522 3
    endloop
  endfacet
  facet normal 0 -1 -0
    outer loop
      vertex 1.04528 -9.94522 3
      vertex -1.04528 -9.94522 0
      vertex 1.04528 -9.94522 0
    endloop
  endfacet
  facet normal -0.406737 -0.913545 0
    outer loop
      vertex -5 -8.66025 0
      vertex -3.09017 -9.51056 3
      vertex -5 -8.66025 3
    endloop
  endfacet
  facet normal -0.406737 -0.913545 -0
    outer loop
      vertex -3.09017 -9.51056 3
      vertex -5 -8.66025 0
      vertex -3.09017 -9.51056 0
    endloop
  endfacet
  facet normal -0.743145 -0.669131 0
    outer loop
      vertex -6.69131 -7.43145 0
      vertex -8.09017 -5.87785 3
      vertex -8.09017 -5.87785 0
    endloop
  endfacet
  facet normal -0.743145 -0.669131 0
    outer loop
      vertex -8.09017 -5.87785 3
      vertex -6.69131 -7.43145 0
      vertex -6.69131 -7.43145 3
    endloop
  endfacet
  facet normal 0 0 -1
    outer loop
      vertex 9.78148 -2.07912 0
      vertex 9.78148 2.07912 0
      vertex 10 0 0
    endloop
  endfacet
  facet normal 0 0 -1
    outer loop
      vertex 9.13545 -4.06737 0
      vertex 9.78148 2.07912 0
      vertex 9.78148 -2.07912 0
    endloop
  endfacet
  facet normal 0 0 -1
    outer loop
      vertex 9.13545 -4.06737 0
      vertex 9.13545 4.06737 0
      vertex 9.78148 2.07912 0
    endloop
  endfacet
  facet normal 0 0 -1
    outer loop
      vertex 8.09017 -5.87785 0
      vertex 9.13545 4.06737 0
      vertex 9.13545 -4.06737 0
    endloop
  endfacet
  facet normal 0 0 -1
    outer loop
      vertex 8.09017 -5.87785 0
      vertex 8.09017 5.87785 0
      vertex 9.13545 4.06737 0
    endloop
  endfacet
  facet normal 0 0 -1
    outer loop
      vertex 6.69131 -7.43145 0
      vertex 8.09017 5.87785 0
      vertex 8.09017 -5.87785 0
    endloop
  endfacet
  facet normal 0 0 -1
    outer loop
      vertex 6.69131 -7.43145 0
      vertex 6.69131 7.43145 0
      vertex 8.09017 5.87785 0
    endloop
  endfacet
  facet normal 0 0 -1
    outer loop
      vertex 5 -8.66025 0
      vertex 6.69131 7.43145 0
      vertex 6.69131 -7.43145 0
    endloop
  endfacet
  facet normal 0 0 -1
    outer loop
      vertex 5 -8.66025 0
      vertex 5 8.66025 0
      vertex 6.69131 7.43145 0
    endloop
  endfacet
  facet normal 0 0 -1
    outer loop
      vertex 3.09017 -9.51056 0
      vertex 5 8.66025 0
      vertex 5 -8.66025 0
    endloop
  endfacet
  facet normal 0 0 -1
    outer loop
      vertex 3.09017 -9.51056 0
      vertex 3.09017 9.51056 0
      vertex 5 8.66025 0
    endloop
  endfacet
  facet normal 0 0 -1
    outer loop
      vertex 1.04528 -9.94522 0
      vertex 3.09017 9.51056 0
      vertex 3.09017 -9.51056 0
    endloop
  endfacet
  facet normal 0 0 -1
    outer loop
      vertex 1.04528 -9.94522 0
      vertex 1.04528 9.94522 0
      vertex 3.09017 9.51056 0
    endloop
  endfacet
  facet normal 0 0 -1
    outer loop
      vertex -1.04528 -9.94522 0
      vertex 1.04528 9.94522 0
      vertex 1.04528 -9.94522 0
    endloop
  endfacet
  facet normal 0 0 -1
    outer loop
      vertex -1.04528 -9.94522 0
      vertex -1.04528 9.94522 0
      vertex 1.04528 9.94522 0
    endloop
  endfacet
  facet normal 0 0 -1
    outer loop
      vertex -3.09017 -9.51056 0
      vertex -1.04528 9.94522 0
      vertex -1.04528 -9.94522 0
    endloop
  endfacet
  facet normal 0 0 -1
    outer loop
      vertex -3.09017 -9.51056 0
      vertex -3.09017 9.51056 0
      vertex -1.04528 9.94522 0
    endloop
  endfacet
  facet normal 0 0 -1
    outer loop
      vertex -3.09017 -9.51056 0
      vertex -5 8.66025 0
      vertex -3.09017 9.51056 0
    endloop
  endfacet
  facet normal 0 0 -1
    outer loop
      vertex -5 -8.66025 0
      vertex -5 8.66025 0
      vertex -3.09017 -9.51056 0
    endloop
  endfacet
  facet normal 0 0 -1
    outer loop
      vertex -6.69131 -7.43145 0
      vertex -5 8.66025 0
      vertex -5 -8.66025 0
    endloop
  endfacet
  facet normal 0 0 -1
    outer loop
      vertex -6.69131 -7.43145 0
      vertex -6.69131 7.43145 0
      vertex -5 8.66025 0
    endloop
  endfacet
  facet normal 0 0 -1
    outer loop
      vertex -8.09017 -5.87785 0
      vertex -6.69131 7.43145 0
      vertex -6.69131 -7.43145 0
    endloop
  endfacet
  facet normal 0 0 -1
    outer loop
      vertex -8.09017 -5.87785 0
      vertex -8.09017 5.87785 0
      vertex -6.69131 7.43145 0
    endloop
  endfacet
  facet normal 0 0 -1
    outer loop
      vertex -9.13545 -4.06737 0
      vertex -8.09017 5.87785 0
      vertex -8.09017 -5.87785 0
    endloop
  endfacet
  facet normal 0 0 -1
    outer loop
      vertex -9.13545 -4.06737 0
      vertex -9.13545 4.06737 0
      vertex -8.09017 5.87785 0
    endloop
  endfacet
  facet normal 0 0 -1
    outer loop
      vertex -9.78148 -2.07912 0
      vertex -9.13545 4.06737 0
      vertex -9.13545 -4.06737 0
    endloop
  endfacet
  facet normal 0 0 -1
    outer loop
      vertex -9.78148 -2.07912 0
      vertex -9.78148 2.07912 0
      vertex -9.13545 4.06737 0
    endloop
  endfacet
  facet normal 0 -0 -1
    outer loop
      vertex -9.78148 2.07912 0
      vertex -9.78148 -2.07912 0
      vertex -10 0 0
    endloop
  endfacet
  facet normal -0.587785 -0.809017 0
    outer loop
      vertex -6.69131 -7.43145 0
      vertex -5 -8.66025 3
      vertex -6.69131 -7.43145 3
    endloop
  endfacet
  facet normal -0.587785 -0.809017 -0
    outer loop
      vertex -5 -8.66025 3
      vertex -6.69131 -7.43145 0
      vertex -5 -8.66025 0
    endloop
  endfacet
  facet normal -1 0 0
    outer loop
      vertex -9 -4 3
      vertex -9 4 20
      vertex -9 4 3
    endloop
  endfacet
  facet normal -1 -0 0
    outer loop
      vertex -9 4 20
      vertex -9 -4 3
      vertex -9 -4 20
    endloop
  endfacet
  facet normal 0 0 1
    outer loop
      vertex 9 4 20
      vertex 4.5 3.5 20
      vertex 9 -4 20
    endloop
  endfacet
  facet normal 0 0 1
    outer loop
      vertex 9 4 20
      vertex -1.5 3.5 20
      vertex 4.5 3.5 20
    endloop
  endfacet
  facet normal 0 0 1
    outer loop
      vertex -1.5 3.5 20
      vertex -9 4 20
      vertex -1.5 -3.5 20
    endloop
  endfacet
  facet normal -0 0 1
    outer loop
      vertex -9 4 20
      vertex -1.5 3.5 20
      vertex 9 4 20
    endloop
  endfacet
  facet normal -0 0 1
    outer loop
      vertex 4.5 -3.5 20
      vertex 9 -4 20
      vertex 4.5 3.5 20
    endloop
  endfacet
  facet normal -0 0 1
    outer loop
      vertex -1.5 -3.5 20
      vertex 9 -4 20
      vertex 4.5 -3.5 20
    endloop
  endfacet
  facet normal 0 0 1
    outer loop
      vertex -1.5 -3.5 20
      vertex -9 -4 20
      vertex 9 -4 20
    endloop
  endfacet
  facet normal 0 0 1
    outer loop
      vertex -9 -4 20
      vertex -1.5 -3.5 20
      vertex -9 4 20
    endloop
  endfacet
  facet normal 1 -0 0
    outer loop
      vertex 9 -4 20
      vertex 9 4 3
      vertex 9 4 20
    endloop
  endfacet
  facet normal 1 0 0
    outer loop
      vertex 9 4 3
      vertex 9 -4 20
      vertex 9 -4 3
    endloop
  endfacet
  facet normal 0 1 0
    outer loop
      vertex 9 4 20
      vertex 0.996203 4 17.9287
      vertex -9 4 20
    endloop
  endfacet
  facet normal 0 1 0
    outer loop
      vertex 9 4 20
      vertex 2.9079 4 17.3674
      vertex 0.996203 4 17.9287
    endloop
  endfacet
  facet normal 0 1 0
    outer loop
      vertex 9 4 20
      vertex 4.58402 4 16.2902
      vertex 2.9079 4 17.3674
    endloop
  endfacet
  facet normal 0 1 0
    outer loop
      vertex 9 4 20
      vertex 5.88877 4 14.7845
      vertex 4.58402 4 16.2902
    endloop
  endfacet
  facet normal 0 1 0
    outer loop
      vertex 9 4 20
      vertex 6.71645 4 12.9721
      vertex 5.88877 4 14.7845
    endloop
  endfacet
  facet normal 0 1 0
    outer loop
      vertex 9 4 20
      vertex 7 4 11
      vertex 6.71645 4 12.9721
    endloop
  endfacet
  facet normal 0 1 -0
    outer loop
      vertex 9 4 3
      vertex 7 4 11
      vertex 9 4 20
    endloop
  endfacet
  facet normal 0 1 0
    outer loop
      vertex 0.996203 4 4.07125
      vertex 9 4 3
      vertex -0.996203 4 4.07125
    endloop
  endfacet
  facet normal 0 1 0
    outer loop
      vertex 2.9079 4 4.63258
      vertex 9 4 3
      vertex 0.996203 4 4.07125
    endloop
  endfacet
  facet normal 0 1 0
    outer loop
      vertex 4.58402 4 5.70975
      vertex 9 4 3
      vertex 2.9079 4 4.63258
    endloop
  endfacet
  facet normal 0 1 0
    outer loop
      vertex 5.88877 4 7.21551
      vertex 9 4 3
      vertex 4.58402 4 5.70975
    endloop
  endfacet
  facet normal 0 1 0
    outer loop
      vertex 6.71645 4 9.02787
      vertex 9 4 3
      vertex 5.88877 4 7.21551
    endloop
  endfacet
  facet normal 0 1 0
    outer loop
      vertex 7 4 11
      vertex 9 4 3
      vertex 6.71645 4 9.02787
    endloop
  endfacet
  facet normal 0 1 -0
    outer loop
      vertex -0.996203 4 17.9287
      vertex -9 4 20
      vertex 0.996203 4 17.9287
    endloop
  endfacet
  facet normal 0 1 -0
    outer loop
      vertex -2.9079 4 17.3674
      vertex -9 4 20
      vertex -0.996203 4 17.9287
    endloop
  endfacet
  facet normal 0 1 -0
    outer loop
      vertex -4.58402 4 16.2902
      vertex -9 4 20
      vertex -2.9079 4 17.3674
    endloop
  endfacet
  facet normal 0 1 -0
    outer loop
      vertex -5.88877 4 14.7845
      vertex -9 4 20
      vertex -4.58402 4 16.2902
    endloop
  endfacet
  facet normal 0 1 -0
    outer loop
      vertex -6.71645 4 12.9721
      vertex -9 4 20
      vertex -5.88877 4 14.7845
    endloop
  endfacet
  facet normal 0 1 -0
    outer loop
      vertex -7 4 11
      vertex -9 4 20
      vertex -6.71645 4 12.9721
    endloop
  endfacet
  facet normal 0 1 0
    outer loop
      vertex -9 4 3
      vertex -7 4 11
      vertex -6.71645 4 9.02787
    endloop
  endfacet
  facet normal 0 1 0
    outer loop
      vertex -7 4 11
      vertex -9 4 3
      vertex -9 4 20
    endloop
  endfacet
  facet normal 0 1 0
    outer loop
      vertex -5.88877 4 7.21551
      vertex -9 4 3
      vertex -6.71645 4 9.02787
    endloop
  endfacet
  facet normal 0 1 0
    outer loop
      vertex -4.58402 4 5.70975
      vertex -9 4 3
      vertex -5.88877 4 7.21551
    endloop
  endfacet
  facet normal 0 1 0
    outer loop
      vertex -2.9079 4 4.63258
      vertex -9 4 3
      vertex -4.58402 4 5.70975
    endloop
  endfacet
  facet normal 0 1 0
    outer loop
      vertex -0.996203 4 4.07125
      vertex -9 4 3
      vertex -2.9079 4 4.63258
    endloop
  endfacet
  facet normal 0 1 0
    outer loop
      vertex -9 4 3
      vertex -0.996203 4 4.07125
      vertex 9 4 3
    endloop
  endfacet
  facet normal 0 -1 0
    outer loop
      vertex -9 -4 20
      vertex -0.996203 -4 17.9287
      vertex 9 -4 20
    endloop
  endfacet
  facet normal 0 -1 0
    outer loop
      vertex -9 -4 20
      vertex -2.9079 -4 17.3674
      vertex -0.996203 -4 17.9287
    endloop
  endfacet
  facet normal 0 -1 0
    outer loop
      vertex -9 -4 20
      vertex -4.58402 -4 16.2902
      vertex -2.9079 -4 17.3674
    endloop
  endfacet
  facet normal 0 -1 0
    outer loop
      vertex -9 -4 20
      vertex -5.88877 -4 14.7845
      vertex -4.58402 -4 16.2902
    endloop
  endfacet
  facet normal 0 -1 0
    outer loop
      vertex -9 -4 20
      vertex -6.71645 -4 12.9721
      vertex -5.88877 -4 14.7845
    endloop
  endfacet
  facet normal 0 -1 0
    outer loop
      vertex -9 -4 20
      vertex -7 -4 11
      vertex -6.71645 -4 12.9721
    endloop
  endfacet
  facet normal 0 -1 0
    outer loop
      vertex -9 -4 3
      vertex -7 -4 11
      vertex -9 -4 20
    endloop
  endfacet
  facet normal 0 -1 -0
    outer loop
      vertex -0.996203 -4 4.07125
      vertex -9 -4 3
      vertex 0.996203 -4 4.07125
    endloop
  endfacet
  facet normal 0 -1 -0
    outer loop
      vertex -2.9079 -4 4.63258
      vertex -9 -4 3
      vertex -0.996203 -4 4.07125
    endloop
  endfacet
  facet normal 0 -1 -0
    outer loop
      vertex -4.58402 -4 5.70975
      vertex -9 -4 3
      vertex -2.9079 -4 4.63258
    endloop
  endfacet
  facet normal 0 -1 -0
    outer loop
      vertex -5.88877 -4 7.21551
      vertex -9 -4 3
      vertex -4.58402 -4 5.70975
    endloop
  endfacet
  facet normal 0 -1 -0
    outer loop
      vertex -6.71645 -4 9.02787
      vertex -9 -4 3
      vertex -5.88877 -4 7.21551
    endloop
  endfacet
  facet normal 0 -1 -0
    outer loop
      vertex -7 -4 11
      vertex -9 -4 3
      vertex -6.71645 -4 9.02787
    endloop
  endfacet
  facet normal 0 -1 0
    outer loop
      vertex 0.996203 -4 17.9287
      vertex 9 -4 20
      vertex -0.996203 -4 17.9287
    endloop
  endfacet
  facet normal 0 -1 0
    outer loop
      vertex 2.9079 -4 17.3674
      vertex 9 -4 20
      vertex 0.996203 -4 17.9287
    endloop
  endfacet
  facet normal 0 -1 0
    outer loop
      vertex 4.58402 -4 16.2902
      vertex 9 -4 20
      vertex 2.9079 -4 17.3674
    endloop
  endfacet
  facet normal 0 -1 0
    outer loop
      vertex 5.88877 -4 14.7845
      vertex 9 -4 20
      vertex 4.58402 -4 16.2902
    endloop
  endfacet
  facet normal 0 -1 0
    outer loop
      vertex 6.71645 -4 12.9721
      vertex 9 -4 20
      vertex 5.88877 -4 14.7845
    endloop
  endfacet
  facet normal 0 -1 0
    outer loop
      vertex 7 -4 11
      vertex 9 -4 20
      vertex 6.71645 -4 12.9721
    endloop
  endfacet
  facet normal 0 -1 0
    outer loop
      vertex 9 -4 3
      vertex 7 -4 11
      vertex 6.71645 -4 9.02787
    endloop
  endfacet
  facet normal 0 -1 0
    outer loop
      vertex 7 -4 11
      vertex 9 -4 3
      vertex 9 -4 20
    endloop
  endfacet
  facet normal 0 -1 0
    outer loop
      vertex 5.88877 -4 7.21551
      vertex 9 -4 3
      vertex 6.71645 -4 9.02787
    endloop
  endfacet
  facet normal 0 -1 0
    outer loop
      vertex 4.58402 -4 5.70975
      vertex 9 -4 3
      vertex 5.88877 -4 7.21551
    endloop
  endfacet
  facet normal 0 -1 0
    outer loop
      vertex 2.9079 -4 4.63258
      vertex 9 -4 3
      vertex 4.58402 -4 5.70975
    endloop
  endfacet
  facet normal 0 -1 0
    outer loop
      vertex 0.996203 -4 4.07125
      vertex 9 -4 3
      vertex 2.9079 -4 4.63258
    endloop
  endfacet
  facet normal 0 -1 0
    outer loop
      vertex 9 -4 3
      vertex 0.996203 -4 4.07125
      vertex -9 -4 3
    endloop
  endfacet
  facet normal -1 0 0
    outer loop
      vertex -1.5 -3.5 20
      vertex -1.5 3.5 53
      vertex -1.5 3.5 20
    endloop
  endfacet
  facet normal -1 -0 0
    outer loop
      vertex -1.5 3.5 53
      vertex -1.5 -3.5 20
      vertex -1.5 -3.5 53
    endloop
  endfacet
  facet normal -0 0 1
    outer loop
      vertex 0 3.5 33.5
      vertex 4.5 -3.5 33.5
      vertex 4.5 3.5 33.5
    endloop
  endfacet
  facet normal 0 0 1
    outer loop
      vertex 4.5 -3.5 33.5
      vertex 0 3.5 33.5
      vertex 0 -3.5 33.5
    endloop
  endfacet
  facet normal 1 -0 0
    outer loop
      vertex 4.5 -3.5 33.5
      vertex 4.5 3.5 20
      vertex 4.5 3.5 33.5
    endloop
  endfacet
  facet normal 1 0 0
    outer loop
      vertex 4.5 3.5 20
      vertex 4.5 -3.5 33.5
      vertex 4.5 -3.5 20
    endloop
  endfacet
  facet normal 0 -1 0
    outer loop
      vertex -1.5 -3.5 53
      vertex 0 -3.5 33.5
      vertex 0 -3.5 53
    endloop
  endfacet
  facet normal 0 -1 0
    outer loop
      vertex -1.5 -3.5 20
      vertex 0 -3.5 33.5
      vertex -1.5 -3.5 53
    endloop
  endfacet
  facet normal 0 -1 0
    outer loop
      vertex 4.5 -3.5 20
      vertex 0 -3.5 33.5
      vertex -1.5 -3.5 20
    endloop
  endfacet
  facet normal 0 -1 0
    outer loop
      vertex 0 -3.5 33.5
      vertex 4.5 -3.5 20
      vertex 4.5 -3.5 33.5
    endloop
  endfacet
  facet normal 0 1 0
    outer loop
      vertex 4.5 3.5 33.5
      vertex 4.5 3.5 20
      vertex 0 3.5 33.5
    endloop
  endfacet
  facet normal 0 1 -0
    outer loop
      vertex 0 3.5 33.5
      vertex -1.5 3.5 53
      vertex 0 3.5 53
    endloop
  endfacet
  facet normal 0 1 0
    outer loop
      vertex 0 3.5 33.5
      vertex -1.5 3.5 20
      vertex -1.5 3.5 53
    endloop
  endfacet
  facet normal 0 1 0
    outer loop
      vertex -1.5 3.5 20
      vertex 0 3.5 33.5
      vertex 4.5 3.5 20
    endloop
  endfacet
  facet normal -0 0 1
    outer loop
      vertex -1.5 3.5 53
      vertex 0 -3.5 53
      vertex 0 3.5 53
    endloop
  endfacet
  facet normal 0 0 1
    outer loop
      vertex 0 -3.5 53
      vertex -1.5 3.5 53
      vertex -1.5 -3.5 53
    endloop
  endfacet
  facet normal 1 -0 0
    outer loop
      vertex 0 -3.5 53
      vertex 0 3.5 33.5
      vertex 0 3.5 53
    endloop
  endfacet
  facet normal 1 0 0
    outer loop
      vertex 0 3.5 33.5
      vertex 0 -3.5 53
      vertex 0 -3.5 33.5
    endloop
  endfacet
  facet normal -0.989821 0 -0.142315
    outer loop
      vertex 7 -4 11
      vertex 6.71645 4 12.9721
      vertex 7 4 11
    endloop
  endfacet
  facet normal -0.989821 -0 -0.142315
    outer loop
      vertex 6.71645 4 12.9721
      vertex 7 -4 11
      vertex 6.71645 -4 12.9721
    endloop
  endfacet
  facet normal -0.989821 0 0.142315
    outer loop
      vertex 6.71645 -4 9.02787
      vertex 7 4 11
      vertex 6.71645 4 9.02787
    endloop
  endfacet
  facet normal -0.989821 0 0.142315
    outer loop
      vertex 7 4 11
      vertex 6.71645 -4 9.02787
      vertex 7 -4 11
    endloop
  endfacet
  facet normal -0 0 1
    outer loop
      vertex -0.996203 4 4.07125
      vertex 0.996203 -4 4.07125
      vertex 0.996203 4 4.07125
    endloop
  endfacet
  facet normal 0 0 1
    outer loop
      vertex 0.996203 -4 4.07125
      vertex -0.996203 4 4.07125
      vertex -0.996203 -4 4.07125
    endloop
  endfacet
  facet normal -0.75575 0 -0.654861
    outer loop
      vertex 5.88877 -4 14.7845
      vertex 4.58402 4 16.2902
      vertex 5.88877 4 14.7845
    endloop
  endfacet
  facet normal -0.75575 -0 -0.654861
    outer loop
      vertex 4.58402 4 16.2902
      vertex 5.88877 -4 14.7845
      vertex 4.58402 -4 16.2902
    endloop
  endfacet
  facet normal 0 0 -1
    outer loop
      vertex -0.996203 -4 17.9287
      vertex 0.996203 4 17.9287
      vertex 0.996203 -4 17.9287
    endloop
  endfacet
  facet normal -0 0 -1
    outer loop
      vertex 0.996203 4 17.9287
      vertex -0.996203 -4 17.9287
      vertex -0.996203 4 17.9287
    endloop
  endfacet
  facet normal -0.540641 0 -0.841253
    outer loop
      vertex 2.9079 -4 17.3674
      vertex 4.58402 4 16.2902
      vertex 4.58402 -4 16.2902
    endloop
  endfacet
  facet normal -0.540641 0 -0.841253
    outer loop
      vertex 4.58402 4 16.2902
      vertex 2.9079 -4 17.3674
      vertex 2.9079 4 17.3674
    endloop
  endfacet
  facet normal 0.540641 0 -0.841253
    outer loop
      vertex -4.58402 -4 16.2902
      vertex -2.9079 4 17.3674
      vertex -2.9079 -4 17.3674
    endloop
  endfacet
  facet normal 0.540641 0 -0.841253
    outer loop
      vertex -2.9079 4 17.3674
      vertex -4.58402 -4 16.2902
      vertex -4.58402 4 16.2902
    endloop
  endfacet
  facet normal 0.75575 0 -0.654861
    outer loop
      vertex -4.58402 -4 16.2902
      vertex -5.88877 4 14.7845
      vertex -4.58402 4 16.2902
    endloop
  endfacet
  facet normal 0.75575 0 -0.654861
    outer loop
      vertex -5.88877 4 14.7845
      vertex -4.58402 -4 16.2902
      vertex -5.88877 -4 14.7845
    endloop
  endfacet
  facet normal -0.909632 0 -0.415415
    outer loop
      vertex 6.71645 -4 12.9721
      vertex 5.88877 4 14.7845
      vertex 6.71645 4 12.9721
    endloop
  endfacet
  facet normal -0.909632 -0 -0.415415
    outer loop
      vertex 5.88877 4 14.7845
      vertex 6.71645 -4 12.9721
      vertex 5.88877 -4 14.7845
    endloop
  endfacet
  facet normal -0.281732 0 -0.959493
    outer loop
      vertex 0.996203 -4 17.9287
      vertex 2.9079 4 17.3674
      vertex 2.9079 -4 17.3674
    endloop
  endfacet
  facet normal -0.281732 0 -0.959493
    outer loop
      vertex 2.9079 4 17.3674
      vertex 0.996203 -4 17.9287
      vertex 0.996203 4 17.9287
    endloop
  endfacet
  facet normal 0.989821 -0 0.142315
    outer loop
      vertex -7 -4 11
      vertex -6.71645 4 9.02787
      vertex -7 4 11
    endloop
  endfacet
  facet normal 0.989821 0 0.142315
    outer loop
      vertex -6.71645 4 9.02787
      vertex -7 -4 11
      vertex -6.71645 -4 9.02787
    endloop
  endfacet
  facet normal 0.909632 0 -0.415415
    outer loop
      vertex -5.88877 -4 14.7845
      vertex -6.71645 4 12.9721
      vertex -5.88877 4 14.7845
    endloop
  endfacet
  facet normal 0.909632 0 -0.415415
    outer loop
      vertex -6.71645 4 12.9721
      vertex -5.88877 -4 14.7845
      vertex -6.71645 -4 12.9721
    endloop
  endfacet
  facet normal 0.281732 0 -0.959493
    outer loop
      vertex -2.9079 -4 17.3674
      vertex -0.996203 4 17.9287
      vertex -0.996203 -4 17.9287
    endloop
  endfacet
  facet normal 0.281732 0 -0.959493
    outer loop
      vertex -0.996203 4 17.9287
      vertex -2.9079 -4 17.3674
      vertex -2.9079 4 17.3674
    endloop
  endfacet
  facet normal 0.540641 0 0.841254
    outer loop
      vertex -4.58402 4 5.70975
      vertex -2.9079 -4 4.63258
      vertex -2.9079 4 4.63258
    endloop
  endfacet
  facet normal 0.540641 0 0.841254
    outer loop
      vertex -2.9079 -4 4.63258
      vertex -4.58402 4 5.70975
      vertex -4.58402 -4 5.70975
    endloop
  endfacet
  facet normal 0.909632 -0 0.415415
    outer loop
      vertex -6.71645 -4 9.02787
      vertex -5.88877 4 7.21551
      vertex -6.71645 4 9.02787
    endloop
  endfacet
  facet normal 0.909632 0 0.415415
    outer loop
      vertex -5.88877 4 7.21551
      vertex -6.71645 -4 9.02787
      vertex -5.88877 -4 7.21551
    endloop
  endfacet
  facet normal 0.75575 -0 0.654861
    outer loop
      vertex -5.88877 -4 7.21551
      vertex -4.58402 4 5.70975
      vertex -5.88877 4 7.21551
    endloop
  endfacet
  facet normal 0.75575 0 0.654861
    outer loop
      vertex -4.58402 4 5.70975
      vertex -5.88877 -4 7.21551
      vertex -4.58402 -4 5.70975
    endloop
  endfacet
  facet normal 0.989821 0 -0.142315
    outer loop
      vertex -6.71645 -4 12.9721
      vertex -7 4 11
      vertex -6.71645 4 12.9721
    endloop
  endfacet
  facet normal 0.989821 0 -0.142315
    outer loop
      vertex -7 4 11
      vertex -6.71645 -4 12.9721
      vertex -7 -4 11
    endloop
  endfacet
  facet normal -0.540641 0 0.841254
    outer loop
      vertex 2.9079 4 4.63258
      vertex 4.58402 -4 5.70975
      vertex 4.58402 4 5.70975
    endloop
  endfacet
  facet normal -0.540641 0 0.841254
    outer loop
      vertex 4.58402 -4 5.70975
      vertex 2.9079 4 4.63258
      vertex 2.9079 -4 4.63258
    endloop
  endfacet
  facet normal 0.281733 0 0.959493
    outer loop
      vertex -2.9079 4 4.63258
      vertex -0.996203 -4 4.07125
      vertex -0.996203 4 4.07125
    endloop
  endfacet
  facet normal 0.281733 0 0.959493
    outer loop
      vertex -0.996203 -4 4.07125
      vertex -2.9079 4 4.63258
      vertex -2.9079 -4 4.63258
    endloop
  endfacet
  facet normal -0.75575 0 0.654861
    outer loop
      vertex 4.58402 -4 5.70975
      vertex 5.88877 4 7.21551
      vertex 4.58402 4 5.70975
    endloop
  endfacet
  facet normal -0.75575 0 0.654861
    outer loop
      vertex 5.88877 4 7.21551
      vertex 4.58402 -4 5.70975
      vertex 5.88877 -4 7.21551
    endloop
  endfacet
  facet normal -0.909632 0 0.415415
    outer loop
      vertex 5.88877 -4 7.21551
      vertex 6.71645 4 9.02787
      vertex 5.88877 4 7.21551
    endloop
  endfacet
  facet normal -0.909632 0 0.415415
    outer loop
      vertex 6.71645 4 9.02787
      vertex 5.88877 -4 7.21551
      vertex 6.71645 -4 9.02787
    endloop
  endfacet
  facet normal -0.281733 0 0.959493
    outer loop
      vertex 0.996203 4 4.07125
      vertex 2.9079 -4 4.63258
      vertex 2.9079 4 4.63258
    endloop
  endfacet
  facet normal -0.281733 0 0.959493
    outer loop
      vertex 2.9079 -4 4.63258
      vertex 0.996203 4 4.07125
      vertex 0.996203 -4 4.07125
    endloop
  endfacet
endsolid OpenSCAD_Model
